<svg width="102mm" height="115mm" version="1.1" viewBox="0 0 102 115" xmlns="http://www.w3.org/2000/svg"><g transform="translate(23.2 -76.7)"><g transform="translate(0 2.41)"><path d="m27.8 74.3v61.4c3.08-7.55 6.49-12.2 11.3-17.5 2.66-18.8 25.2-19.4 25.2-19.4s-5.09 24.2-23.7 21.5c-7.88 8.87-14.2 21.5-15.8 36.3 1.54-2.26 3.52-3.59 5.61-4.18 0.94-0.267 1.88-0.394 2.8-0.42 1.76-0.588 3.43-0.839 5-0.831 10.1 0.0483 16.2 10.8 16.2 10.8s-17.2 5.09-22.4-7.31c-0.33 0.0486-0.657 0.113-0.978 0.204-3 0.851-6.4 2.68-6.66 10.7s1.2 14.3 4.65 23.5c7.74-1.91 49.8-16.4 49.8-105-28.6 0-51-9.81-51-9.81z" fill="#4bb07b"/><path d="m27.8 74.3s-22.5 9.81-51 9.81c0 87.8 41.3 103 49.6 105-5.53-15.3-5.53-29.8-2.32-42.4 2.95-10.1 1.1-12.1-3.04-17.8-1.43-2.01-3.15-3.6-4.87-4.8-17 6.25-27.6-12.4-27.6-12.4s4.59-1.35 10.2-1.29c6.81 0.0727 15.1 2.23 18.5 11.4 4.41 3.25 8.62 8.6 10.6 14.1 0-1.14-8e-5 -61.4-8e-5 -61.4z" fill="#24425d" style="paint-order:markers stroke fill"/></g></g></svg>
