<?xml version="1.0" encoding="UTF-8" standalone="no"?>
<svg
   xmlns:dc="http://purl.org/dc/elements/1.1/"
   xmlns:cc="http://creativecommons.org/ns#"
   xmlns:rdf="http://www.w3.org/1999/02/22-rdf-syntax-ns#"
   xmlns:svg="http://www.w3.org/2000/svg"
   xmlns="http://www.w3.org/2000/svg"
   xmlns:sodipodi="http://sodipodi.sourceforge.net/DTD/sodipodi-0.dtd"
   xmlns:inkscape="http://www.inkscape.org/namespaces/inkscape"
   width="340.21921mm"
   height="114.73924mm"
   viewBox="0 0 340.21921 114.73924"
   version="1.1"
   id="svg950"
   inkscape:version="1.0 (1.0+r73+1)"
   sodipodi:docname="opencast-university.svg">
  <defs
     id="defs944">
    <rect
       x="436.82431"
       y="133.58131"
       width="90.536514"
       height="50.545116"
       id="rect1631" />
  </defs>
  <sodipodi:namedview
     lock-margins="true"
     id="base"
     pagecolor="#ffffff"
     bordercolor="#666666"
     borderopacity="1.0"
     inkscape:pageopacity="0.0"
     inkscape:pageshadow="2"
     inkscape:zoom="0.5"
     inkscape:cx="771.66012"
     inkscape:cy="329.16137"
     inkscape:document-units="mm"
     inkscape:current-layer="layer1"
     inkscape:document-rotation="0"
     showgrid="false"
     inkscape:window-width="1920"
     inkscape:window-height="972"
     inkscape:window-x="0"
     inkscape:window-y="27"
     inkscape:window-maximized="1"
     fit-margin-top="0"
     fit-margin-left="0"
     fit-margin-right="0"
     fit-margin-bottom="0" />
  <metadata
     id="metadata947">
    <rdf:RDF>
      <cc:Work
         rdf:about="">
        <dc:format>image/svg+xml</dc:format>
        <dc:type
           rdf:resource="http://purl.org/dc/dcmitype/StillImage" />
        <dc:title></dc:title>
      </cc:Work>
    </rdf:RDF>
  </metadata>
  <g
     inkscape:label="Layer 1"
     inkscape:groupmode="layer"
     id="layer1"
     transform="translate(23.192606,-76.694048)">
    <g
       id="g852"
       transform="translate(0,2.4134836)">
      <path
         id="path1550"
         style="fill:#4bb07b;fill-opacity:1;stroke:none;stroke-width:0.264583px;stroke-linecap:butt;stroke-linejoin:miter;stroke-opacity:1"
         d="m 27.843031,74.280565 v 61.447415 c 3.078771,-7.55317 6.490018,-12.19051 11.290247,-17.47904 2.657396,-18.834173 25.182962,-19.354889 25.182962,-19.354889 0,0 -5.086112,24.241979 -23.716377,21.470519 -7.883974,8.87369 -14.214236,21.53021 -15.814013,36.26342 1.542177,-2.26431 3.522107,-3.5932 5.60533,-4.18424 0.940012,-0.26668 1.879838,-0.39432 2.797255,-0.42013 1.758923,-0.58825 3.428629,-0.83897 5.001233,-0.83147 10.116793,0.0483 16.216603,10.76162 16.216603,10.76162 0,0 -17.182438,5.08578 -22.355227,-7.30964 -0.329856,0.0486 -0.65749,0.11261 -0.978244,0.20361 -3.00064,0.85131 -6.39744,2.67921 -6.661097,10.65103 -0.263657,7.97182 1.198933,14.28208 4.653994,23.52104 7.739962,-1.91076 49.813474,-16.36897 49.813474,-104.926923 -28.578836,0 -51.03614,-9.812322 -51.03614,-9.812322 z"
         sodipodi:nodetypes="ccccccscsccszccc" />
      <path
         sodipodi:nodetypes="cccccccsccc"
         d="m 27.843034,74.280564 c 0,0 -22.45678,9.81232 -51.03564,9.81232 0,87.785256 41.33056,102.752706 49.59128,104.868526 -5.53106,-15.28042 -5.52675,-29.82544 -2.3182,-42.43564 2.95316,-10.05527 1.10119,-12.05725 -3.03855,-17.76791 -1.42978,-2.00896 -3.15492,-3.60236 -4.87362,-4.7961 -17.00966998,6.25178 -27.58901,-12.42663 -27.58901,-12.42663 0,0 4.58962,-1.34703 10.18905,-1.28726 6.80503,0.0727 15.09877,2.22742 18.46244,11.39931 4.40972,3.25135 8.62392,8.60167 10.61233,14.08078 0,-1.13617 -8e-5,-61.447396 -8e-5,-61.447396 z"
         style="fill:#24425d;fill-opacity:1;stroke:none;stroke-width:2.5;stroke-linecap:round;stroke-linejoin:round;stroke-miterlimit:4;stroke-dasharray:none;paint-order:markers stroke fill"
         id="rect1606" />
    </g>
    <text
       transform="matrix(2.5139702,0,0,2.5139702,-994.21745,-257.74167)"
       xml:space="preserve"
       id="text1629"
       style="font-style:normal;font-weight:normal;font-size:21.5562px;line-height:1;font-family:sans-serif;white-space:pre;shape-inside:url(#rect1631);fill:#000000;fill-opacity:1;stroke:none;"><tspan
         x="436.82422"
         y="149.95969"><tspan
           style="font-style:normal;font-variant:normal;font-weight:normal;font-stretch:normal;font-size:21.5562px;font-family:'EB Garamond';-inkscape-font-specification:'EB Garamond'">Opencast 
</tspan></tspan><tspan
         x="436.82422"
         y="172.24375"><tspan
           style="font-style:normal;font-variant:normal;font-weight:normal;font-stretch:normal;font-size:21.5562px;font-family:'EB Garamond';-inkscape-font-specification:'EB Garamond'">University</tspan></tspan></text>
  </g>
</svg>
