<svg width="3659.7" height="2080.7" version="1.1" viewBox="0 0 968.31 550.52" xmlns="http://www.w3.org/2000/svg"><defs><marker id="DiamondS" overflow="visible" orient="auto"><path transform="scale(.2)" d="m0-7.0711-7.0711 7.0711 7.0711 7.0711 7.071-7.0711z" fill="context-stroke" fill-rule="evenodd" stroke="context-stroke" stroke-width="1pt"/></marker><marker id="DiamondSstart" overflow="visible" orient="auto"><path transform="matrix(.2 0 0 .2 1.2 0)" d="m0-7.0711-7.0711 7.0711 7.0711 7.0711 7.071-7.0711z" fill="context-stroke" fill-rule="evenodd" stroke="context-stroke" stroke-width="1pt"/></marker><marker id="a" overflow="visible" orient="auto"><path transform="scale(-.4)" d="m5.77 0-8.65 5v-10z" fill="context-stroke" fill-rule="evenodd" stroke="context-stroke" stroke-width="1pt"/></marker><marker id="TriangleInM" overflow="visible" orient="auto"><path transform="scale(-.4)" d="m5.77 0-8.65 5v-10z" fill="context-stroke" fill-rule="evenodd" stroke="context-stroke" stroke-width="1pt"/></marker><marker id="TriangleOutM" overflow="visible" orient="auto"><path transform="scale(.4)" d="m5.77 0-8.65 5v-10z" fill="context-stroke" fill-rule="evenodd" stroke="context-stroke" stroke-width="1pt"/></marker></defs><g transform="translate(-24.072 -30.71)"><path d="m24.072 30.71h968.31v550.52h-968.31z" fill="#d4d4d4" stroke-linecap="round" stroke-linejoin="round" stroke-width="2.3467" style="paint-order:markers stroke fill"/><g transform="translate(-9.3124 -82.284)"><path d="m439.35 306.34h152.46c2.5055 0 4.5225 2.017 4.5225 4.5225v143.4c0 2.5055-2.017 4.5225-4.5225 4.5225h-152.46c-2.5055 0-4.5225-2.017-4.5225-4.5225v-143.4c0-2.5055 2.017-4.5225 4.5225-4.5225z" fill="#f0f0f0" stroke="#5c5c5c" stroke-linecap="round" stroke-linejoin="round" stroke-width="2.6458" style="paint-order:markers stroke fill"/><g transform="matrix(.26458 0 0 .26458 0 5.414)" fill="#236e50" style="shape-inside:url(#rect7623);white-space:pre" aria-label="Tobira Backend"><path d="m1692.6 1193.5v-8.8594h43.203v8.8594h-16.224v44.224h-10.938v-44.224z"/><path d="m1732.1 1217.6q0-8.6042 4.8854-14.328 4.8854-5.7605 13.781-5.7605 9.0053 0 13.854 5.7605 4.849 5.7239 4.849 14.328v0.7656q0 8.6042-4.849 14.328-4.8489 5.724-13.781 5.724-8.8594 0-13.745-5.5781-4.849-5.5781-4.9948-14zm10.573 0.7656q0 4.8125 1.8229 8.2031 1.8594 3.3542 6.3438 3.3542 4.4114 0 6.2343-3.3542 1.8594-3.3541 1.8594-8.9687 0-4.7031-1.8594-8.1302-1.8229-3.4636-6.3073-3.4636-4.4479 0-6.2708 3.4271t-1.8229 8.9323z"/><path d="m1811.5 1218.3q0 8.8593-3.8282 14.474-3.7916 5.6146-11.484 5.6146-6.4167 0-10.245-4.9219l-0.474 4.1927h-9.5156v-56h10.573v20.052q3.6823-4.2292 9.5885-4.2292 7.7657 0 11.557 5.6511 3.8282 5.651 3.8282 14.401zm-18.047-12.286q-4.9948 0-6.9271 4.1198v15.604q1.9323 4.1198 7 4.1198 4.4115 0 5.9062-3.2084 1.5313-3.2448 1.5313-9.1146 0-4.6666-1.5313-8.0937-1.4947-3.4271-5.9791-3.4271z"/><path d="m1817.9 1188q0-2.3698 1.6042-3.9011 1.6042-1.5677 4.3021-1.5677t4.3021 1.5677q1.6041 1.5313 1.6041 3.9011 0 2.3333-1.6041 3.901-1.6042 1.5313-4.3021 1.5313t-4.3021-1.5313q-1.6042-1.5677-1.6042-3.901zm11.229 10.208v39.448h-10.573v-39.448z"/><path d="m1856.2 1207.8q-5.9427 0-7.802 4.0469v25.849h-10.573v-39.448h9.9532l0.3281 4.7031q3.0989-5.4323 8.7865-5.4323 2.0052 0 3.2447 0.474l-0.1093 10.099z"/><path d="m1886.9 1237.7q-0.6562-1.3854-1.0573-3.5364-3.8281 4.2656-9.9531 4.2656-5.6511 0-9.5156-3.3177-3.8646-3.3542-3.8646-8.4948 0-6.1979 4.5937-9.5885 4.5938-3.4271 13.599-3.4271h4.7031v-2.2969q0-2.7344-1.4219-4.3385-1.3854-1.6407-4.4114-1.6407-5.6511 0-5.6511 4.7396h-10.536q0-5.1406 4.5573-8.8229 4.5573-3.7188 12.214-3.7188 6.8177 0 11.302 3.4636 4.5208 3.4635 4.5208 10.391v17.573q0.073 5.25 1.5678 8.1303v0.6197zm-8.7135-7.3281q2.6614 0 4.5208-1.1667 1.8958-1.2031 2.6979-2.625v-6.8541h-4.3021q-4.1927 0-6.125 1.7864-1.9323 1.75-1.9323 4.3386 0 1.9687 1.349 3.2448 1.3854 1.276 3.7917 1.276z"/><path d="m1962.8 1222q0 7.6563-4.8854 11.63-4.8854 3.9375-13.927 4.0104h-20.635v-53.083h18.63q9.2239 0 14.438 3.5364 5.2135 3.5365 5.2135 10.974 0 3.6094-1.8229 6.6354-1.8229 3.0261-5.7604 4.5938 4.6667 1.1666 6.7083 4.5208 2.0417 3.3542 2.0417 7.1823zm-28.474-28.583v13.344h7.6563q8.6771 0 8.6771-6.5625 0-6.6354-8.3125-6.7812zm17.536 28.474q0-7.1458-7.2188-7.401h-10.318v14.328h9.3334q4.1927 0 6.1979-1.9687 2.0052-1.9688 2.0052-4.9584z"/><path d="m1993.1 1237.7q-0.6562-1.3854-1.0573-3.5364-3.8281 4.2656-9.9531 4.2656-5.6511 0-9.5156-3.3177-3.8646-3.3542-3.8646-8.4948 0-6.1979 4.5937-9.5885 4.5938-3.4271 13.599-3.4271h4.7031v-2.2969q0-2.7344-1.4219-4.3385-1.3854-1.6407-4.4114-1.6407-5.6511 0-5.6511 4.7396h-10.536q0-5.1406 4.5573-8.8229 4.5573-3.7188 12.214-3.7188 6.8177 0 11.302 3.4636 4.5208 3.4635 4.5208 10.391v17.573q0.073 5.25 1.5677 8.1303v0.6197zm-8.7135-7.3281q2.6614 0 4.5208-1.1667 1.8958-1.2031 2.6979-2.625v-6.8541h-4.3021q-4.1927 0-6.125 1.7864-1.9323 1.75-1.9323 4.3386 0 1.9687 1.349 3.2448 1.3854 1.276 3.7917 1.276z"/><path d="m2026.7 1229.9q2.8802 0 4.7395-1.5677 1.8594-1.6042 1.8959-4.3021h9.9167q-0.073 6.2709-4.8126 10.318-4.7031 4.0469-11.557 4.0469-9.1511 0-13.708-5.7604-4.5208-5.7969-4.5208-14.182v-1.0208q0-8.349 4.5208-14.146t13.672-5.7969q7.2552 0 11.776 4.1563 4.5573 4.1562 4.6303 11.266h-9.9167q-0.037-2.8802-1.75-4.8854-1.7136-2.0417-4.9219-2.0417-4.5938 0-6.0156 3.4636-1.4219 3.4271-1.4219 9.0052 0 4.5573 1.3854 8.0208 1.4219 3.4271 6.0886 3.4271z"/><path d="m2073.7 1237.7-10.135-15.823-3.7552 3.7552v12.068h-10.536v-56.036h10.536v31.026l2.0417-2.625 10.062-11.812h12.651l-14.219 16.406 15.495 23.042z"/><path d="m2122 1231.3q-1.8958 2.6979-5.7604 4.9219-3.8646 2.2239-9.625 2.2239-9.1875 0-14.365-5.5417-5.1771-5.5781-5.2136-13.453v-1.5312q0-8.9323 4.9584-14.656 4.9948-5.724 13.453-5.724 8.4948 0 12.943 5.323 4.4479 5.3229 4.4479 14.073v4.4844h-25.12q0.5469 3.8281 3.0261 6.1979 2.4791 2.3333 6.526 2.3333 6.0156 0 9.5156-4.4114zm-16.625-25.266q-3.3542 0-5.1771 2.2605-1.8229 2.2604-2.3698 5.9062h14.656v-0.8021q-0.073-3.1719-1.7865-5.25-1.6771-2.1146-5.3229-2.1146z"/><path d="m2145.8 1206q-4.4844 0-6.6719 3.7917v27.854h-10.536v-39.448h9.8802l0.3646 4.5208q4.2292-5.25 11.339-5.25 5.5781 0 9.0052 3.3177 3.4271 3.3178 3.4635 11.557v25.302h-10.573v-25.156q0-3.7917-1.6406-5.1406-1.6042-1.349-4.6302-1.349z"/><path d="m2195 1237.7-0.5104-4.1927q-3.901 4.9219-10.099 4.9219-7.3281 0-11.375-5.6875t-4.0469-14.292v-0.7656q0-9.0052 4.0469-14.583 4.0469-5.5782 11.448-5.5782 5.7605 0 9.4792 4.2657v-20.089h10.573v56zm-15.458-19.25q0 4.7396 1.6771 8.0938 1.677 3.3177 5.8333 3.3177 4.8125 0 6.8906-4.0833v-15.641q-2.0052-4.0833-6.8177-4.0833-4.1198 0-5.8698 3.3542-1.7135 3.3541-1.7135 9.0416z"/></g></g><g transform="translate(370.39 -82.284)"><path d="m439.35 306.34h152.46c2.5055 0 4.5225 2.017 4.5225 4.5225v143.4c0 2.5055-2.017 4.5225-4.5225 4.5225h-152.46c-2.5055 0-4.5225-2.017-4.5225-4.5225v-143.4c0-2.5055 2.017-4.5225 4.5225-4.5225z" fill="#f0f0f0" stroke="#5c5c5c" stroke-linecap="round" stroke-linejoin="round" stroke-width="2.6458" style="paint-order:markers stroke fill"/><g transform="matrix(.26458 0 0 .26458 0 5.414)" fill="#236e50" style="shape-inside:url(#rect35400);white-space:pre" aria-label="Tobira Frontend"><path d="m1687.9 1193.5v-8.8594h43.203v8.8594h-16.224v44.224h-10.938v-44.224z"/><path d="m1727.4 1217.6q0-8.6042 4.8855-14.328 4.8854-5.7605 13.781-5.7605 9.0052 0 13.854 5.7605 4.849 5.7239 4.849 14.328v0.7656q0 8.6042-4.849 14.328-4.849 5.724-13.781 5.724-8.8593 0-13.745-5.5781-4.8489-5.5781-4.9948-14zm10.573 0.7656q0 4.8125 1.8229 8.2031 1.8594 3.3542 6.3437 3.3542 4.4115 0 6.2344-3.3542 1.8594-3.3541 1.8594-8.9687 0-4.7031-1.8594-8.1302-1.8229-3.4636-6.3073-3.4636-4.4479 0-6.2708 3.4271t-1.8229 8.9323z"/><path d="m1806.8 1218.3q0 8.8593-3.8281 14.474-3.7917 5.6146-11.484 5.6146-6.4166 0-10.245-4.9219l-0.4739 4.1927h-9.5157v-56h10.573v20.052q3.6823-4.2292 9.5885-4.2292 7.7656 0 11.557 5.6511 3.8281 5.651 3.8281 14.401zm-18.047-12.286q-4.9947 0-6.927 4.1198v15.604q1.9323 4.1198 7 4.1198 4.4114 0 5.9062-3.2084 1.5313-3.2448 1.5313-9.1146 0-4.6666-1.5313-8.0937-1.4948-3.4271-5.9792-3.4271z"/><path d="m1813.2 1188q0-2.3698 1.6042-3.9011 1.6041-1.5677 4.3021-1.5677 2.6979 0 4.302 1.5677 1.6042 1.5313 1.6042 3.9011 0 2.3333-1.6042 3.901-1.6041 1.5313-4.302 1.5313-2.698 0-4.3021-1.5313-1.6042-1.5677-1.6042-3.901zm11.229 10.208v39.448h-10.573v-39.448z"/><path d="m1851.5 1207.8q-5.9427 0-7.8021 4.0469v25.849h-10.573v-39.448h9.9531l0.3282 4.7031q3.0989-5.4323 8.7864-5.4323 2.0052 0 3.2448 0.474l-0.1094 10.099z"/><path d="m1882.2 1237.7q-0.6563-1.3854-1.0573-3.5364-3.8281 4.2656-9.9531 4.2656-5.6511 0-9.5157-3.3177-3.8645-3.3542-3.8645-8.4948 0-6.1979 4.5937-9.5885 4.5938-3.4271 13.599-3.4271h4.7031v-2.2969q0-2.7344-1.4219-4.3385-1.3854-1.6407-4.4114-1.6407-5.6511 0-5.6511 4.7396h-10.536q0-5.1406 4.5572-8.8229 4.5573-3.7188 12.214-3.7188 6.8177 0 11.302 3.4636 4.5208 3.4635 4.5208 10.391v17.573q0.073 5.25 1.5677 8.1303v0.6197zm-8.7136-7.3281q2.6615 0 4.5209-1.1667 1.8958-1.2031 2.6979-2.625v-6.8541h-4.3021q-4.1927 0-6.125 1.7864-1.9323 1.75-1.9323 4.3386 0 1.9687 1.349 3.2448 1.3854 1.276 3.7916 1.276z"/><path d="m1918.6 1237.7v-53.083h34.599v8.8594h-23.625v13.708h21v8.8229h-21v21.693z"/><path d="m1976.3 1207.8q-5.9428 0-7.8021 4.0469v25.849h-10.573v-39.448h9.9532l0.3281 4.7031q3.099-5.4323 8.7865-5.4323 2.0052 0 3.2448 0.474l-0.1094 10.099z"/><path d="m1982.2 1217.6q0-8.6042 4.8854-14.328 4.8854-5.7605 13.781-5.7605 9.0052 0 13.854 5.7605 4.849 5.7239 4.849 14.328v0.7656q0 8.6042-4.849 14.328-4.849 5.724-13.781 5.724-8.8594 0-13.745-5.5781-4.849-5.5781-4.9948-14zm10.573 0.7656q0 4.8125 1.8229 8.2031 1.8594 3.3542 6.3438 3.3542 4.4114 0 6.2343-3.3542 1.8594-3.3541 1.8594-8.9687 0-4.7031-1.8594-8.1302-1.8229-3.4636-6.3073-3.4636-4.4479 0-6.2708 3.4271t-1.8229 8.9323z"/><path d="m2043.1 1206q-4.4844 0-6.6719 3.7917v27.854h-10.536v-39.448h9.8802l0.3646 4.5208q4.2291-5.25 11.338-5.25 5.5781 0 9.0052 3.3177 3.4271 3.3178 3.4636 11.557v25.302h-10.573v-25.156q0-3.7917-1.6407-5.1406-1.6041-1.349-4.6302-1.349z"/><path d="m2087.7 1237.4q-2.9531 0.9844-6.3437 0.9844-5.1771 0-8.2396-2.6979t-3.0625-8.9688v-20.818h-5.7969v-7.6927h5.7969v-9.7344h10.536v9.7344h6.7084v7.6927h-6.7084v19.724q0 2.4792 1.0209 3.2812 1.0208 0.8021 3.026 0.8021 1.6042 0 3.0625-0.2916z"/><path d="m2126.7 1231.3q-1.8958 2.6979-5.7604 4.9219-3.8646 2.2239-9.625 2.2239-9.1875 0-14.365-5.5417-5.1771-5.5781-5.2135-13.453v-1.5312q0-8.9323 4.9583-14.656 4.9948-5.724 13.453-5.724 8.4948 0 12.943 5.323 4.448 5.3229 4.448 14.073v4.4844h-25.12q0.5468 3.8281 3.026 6.1979 2.4792 2.3333 6.526 2.3333 6.0157 0 9.5157-4.4114zm-16.625-25.266q-3.3542 0-5.1771 2.2605-1.8229 2.2604-2.3698 5.9062h14.656v-0.8021q-0.073-3.1719-1.7865-5.25-1.6771-2.1146-5.3229-2.1146z"/><path d="m2150.5 1206q-4.4844 0-6.6719 3.7917v27.854h-10.536v-39.448h9.8802l0.3646 4.5208q4.2291-5.25 11.338-5.25 5.5781 0 9.0052 3.3177 3.4271 3.3178 3.4636 11.557v25.302h-10.573v-25.156q0-3.7917-1.6406-5.1406-1.6042-1.349-4.6302-1.349z"/><path d="m2199.7 1237.7-0.5104-4.1927q-3.901 4.9219-10.099 4.9219-7.3282 0-11.375-5.6875-4.0468-5.6875-4.0468-14.292v-0.7656q0-9.0052 4.0468-14.583 4.0469-5.5782 11.448-5.5782 5.7604 0 9.4791 4.2657v-20.089h10.573v56zm-15.458-19.25q0 4.7396 1.6771 8.0938 1.6771 3.3177 5.8333 3.3177 4.8125 0 6.8906-4.0833v-15.641q-2.0052-4.0833-6.8177-4.0833-4.1198 0-5.8698 3.3542-1.7135 3.3541-1.7135 9.0416z"/></g></g><g transform="translate(-385.49 -82.284)"><path d="m439.35 306.34h152.46c2.5055 0 4.5225 2.017 4.5225 4.5225v143.4c0 2.5055-2.017 4.5225-4.5225 4.5225h-152.46c-2.5055 0-4.5225-2.017-4.5225-4.5225v-143.4c0-2.5055 2.017-4.5225 4.5225-4.5225z" fill="#e5e5e5" stroke="#5c5c5c" stroke-linecap="round" stroke-linejoin="round" stroke-width="2.6458" style="paint-order:markers stroke fill"/><path d="m491.75 370.45h104.58v78.882h-104.58z" fill="#f0f0f0" stroke="#5c5c5c" stroke-linecap="round" stroke-linejoin="round" stroke-width="2.8241" style="paint-order:markers stroke fill"/><g transform="matrix(.26458 0 0 .26458 0 5.414)" fill="#25367f" style="shape-inside:url(#rect37916);white-space:pre" aria-label="Opencast"><path d="m1839.1 1212.3q0 12.141-6.3073 19.104-6.2708 6.9635-16.26 6.9635t-16.333-6.9635q-6.3438-6.9636-6.3438-19.104v-2.3698q0-12.141 6.3073-19.104 6.3073-7 16.297-7t16.297 7q6.3437 6.9636 6.3437 19.104zm-11.083-2.4427q0-8.3125-3.0261-12.651-3.026-4.3385-8.5312-4.3385t-8.4948 4.3021q-2.9896 4.2656-3.0261 12.505v2.625q0 8.276 3.0261 12.688 3.026 4.375 8.5677 4.375 5.5052 0 8.4583-4.3385 2.9896-4.3386 3.0261-12.542z"/><path d="m1866.5 1238.4q-5.9063 0-9.6615-4.1927v18.63h-10.573v-54.615h9.8073l0.401 3.8281q3.7552-4.5573 9.9167-4.5573 7.5104 0 11.448 5.5053 3.974 5.5052 3.974 14.51v0.7656q0 8.6042-3.974 14.365-3.9375 5.7604-11.338 5.7604zm-2.8438-32.375q-4.9219 0-6.8177 3.8281v16.151q1.9687 3.901 6.8906 3.901 4.1198 0 5.8334-3.3906 1.7135-3.4271 1.7135-9.0052 0-4.8854-1.7865-8.1667-1.75-3.3177-5.8333-3.3177z"/><path d="m1921.9 1231.3q-1.8958 2.6979-5.7604 4.9219-3.8646 2.2239-9.625 2.2239-9.1875 0-14.365-5.5417-5.1771-5.5781-5.2136-13.453v-1.5312q0-8.9323 4.9584-14.656 4.9948-5.724 13.453-5.724 8.4948 0 12.943 5.323 4.4479 5.3229 4.4479 14.073v4.4844h-25.12q0.5469 3.8281 3.0261 6.1979 2.4791 2.3333 6.526 2.3333 6.0156 0 9.5157-4.4114zm-16.625-25.266q-3.3542 0-5.1771 2.2605-1.8229 2.2604-2.3698 5.9062h14.656v-0.8021q-0.073-3.1719-1.7865-5.25-1.6771-2.1146-5.3229-2.1146z"/><path d="m1945.7 1206q-4.4844 0-6.6719 3.7917v27.854h-10.536v-39.448h9.8802l0.3645 4.5208q4.2292-5.25 11.339-5.25 5.5781 0 9.0052 3.3177 3.4271 3.3178 3.4636 11.557v25.302h-10.573v-25.156q0-3.7917-1.6406-5.1406-1.6042-1.349-4.6302-1.349z"/><path d="m1986.9 1229.9q2.8802 0 4.7396-1.5677 1.8594-1.6042 1.8959-4.3021h9.9166q-0.073 6.2709-4.8125 10.318-4.7031 4.0469-11.557 4.0469-9.151 0-13.708-5.7604-4.5208-5.7969-4.5208-14.182v-1.0208q0-8.349 4.5208-14.146t13.672-5.7969q7.2552 0 11.776 4.1563 4.5573 4.1562 4.6302 11.266h-9.9166q-0.037-2.8802-1.75-4.8854-1.7136-2.0417-4.9219-2.0417-4.5938 0-6.0157 3.4636-1.4218 3.4271-1.4218 9.0052 0 4.5573 1.3854 8.0208 1.4219 3.4271 6.0885 3.4271z"/><path d="m2032.3 1237.7q-0.6562-1.3854-1.0573-3.5364-3.8281 4.2656-9.9531 4.2656-5.651 0-9.5156-3.3177-3.8646-3.3542-3.8646-8.4948 0-6.1979 4.5937-9.5885 4.5938-3.4271 13.599-3.4271h4.7031v-2.2969q0-2.7344-1.4218-4.3385-1.3855-1.6407-4.4115-1.6407-5.651 0-5.651 4.7396h-10.536q0-5.1406 4.5573-8.8229 4.5573-3.7188 12.214-3.7188 6.8177 0 11.302 3.4636 4.5209 3.4635 4.5209 10.391v17.573q0.073 5.25 1.5677 8.1303v0.6197zm-8.7135-7.3281q2.6614 0 4.5208-1.1667 1.8959-1.2031 2.6979-2.625v-6.8541h-4.302q-4.1928 0-6.125 1.7864-1.9323 1.75-1.9323 4.3386 0 1.9687 1.3489 3.2448 1.3854 1.276 3.7917 1.276z"/><path d="m2070.9 1226.7q0-1.677-1.5677-2.8073-1.5312-1.1666-6.6354-2.2604-6.0886-1.3125-9.9896-4.0833t-3.901-7.8386q0-4.9218 4.1562-8.5677 4.1927-3.6823 11.557-3.6823 7.6927 0 12.104 3.6094 4.4114 3.6094 4.4114 9.1146h-10.536q0-2.2604-1.4584-3.7552-1.4583-1.4948-4.5572-1.4948-2.6251 0-4.1198 1.2396-1.4584 1.2031-1.4584 3.026 0 1.6771 1.5677 2.7709 1.5677 1.0937 5.7969 1.9323 6.4167 1.276 10.646 3.901 4.2292 2.625 4.2292 8.4948 0 5.2135-4.4844 8.6406-4.4843 3.4271-12.104 3.4271-8.2761 0-12.651-4.2292-4.375-4.2656-4.375-9.0781h10.026q0.1458 3.099 2.2604 4.4479 2.151 1.349 4.9583 1.349 6.125 0 6.125-4.1563z"/><path d="m2107.7 1237.4q-2.9531 0.9844-6.3437 0.9844-5.1771 0-8.2396-2.6979t-3.0625-8.9688v-20.818h-5.7969v-7.6927h5.7969v-9.7344h10.536v9.7344h6.7083v7.6927h-6.7083v19.724q0 2.4792 1.0208 3.2812 1.0208 0.8021 3.026 0.8021 1.6042 0 3.0625-0.2916z"/></g><g transform="matrix(.26458 0 0 .26458 27.758 80.008)" fill="#236e50" style="shape-inside:url(#rect39886);white-space:pre" aria-label="Tobira Module"><path d="m1853 1182.3v-8.8594h43.203v8.8594h-16.224v44.224h-10.938v-44.224z"/><path d="m1892.5 1206.4q0-8.6042 4.8854-14.328 4.8854-5.7605 13.781-5.7605 9.0052 0 13.854 5.7605 4.849 5.7239 4.849 14.328v0.7656q0 8.6042-4.849 14.328-4.8489 5.724-13.781 5.724-8.8594 0-13.745-5.5781-4.849-5.5781-4.9948-14zm10.573 0.7656q0 4.8125 1.8229 8.2031 1.8594 3.3542 6.3438 3.3542 4.4114 0 6.2344-3.3542 1.8593-3.3541 1.8593-8.9687 0-4.7031-1.8593-8.1302-1.823-3.4636-6.3073-3.4636-4.448 0-6.2709 3.4271t-1.8229 8.9323z"/><path d="m1971.9 1207.1q0 8.8593-3.8282 14.474-3.7916 5.6146-11.484 5.6146-6.4167 0-10.245-4.9219l-0.474 4.1927h-9.5156v-56h10.573v20.052q3.6823-4.2292 9.5885-4.2292 7.7657 0 11.557 5.6511 3.8282 5.651 3.8282 14.401zm-18.047-12.286q-4.9948 0-6.9271 4.1198v15.604q1.9323 4.1198 7 4.1198 4.4115 0 5.9063-3.2084 1.5312-3.2448 1.5312-9.1146 0-4.6666-1.5312-8.0937-1.4948-3.4271-5.9792-3.4271z"/><path d="m1978.3 1176.8q0-2.3698 1.6042-3.9011 1.6042-1.5677 4.3021-1.5677t4.3021 1.5677q1.6041 1.5313 1.6041 3.9011 0 2.3333-1.6041 3.901-1.6042 1.5313-4.3021 1.5313t-4.3021-1.5313q-1.6042-1.5677-1.6042-3.901zm11.229 10.208v39.448h-10.573v-39.448z"/><path d="m2016.5 1196.6q-5.9428 0-7.8021 4.0469v25.849h-10.573v-39.448h9.9532l0.3281 4.7031q3.099-5.4323 8.7865-5.4323 2.0052 0 3.2448 0.474l-0.1094 10.099z"/><path d="m2047.2 1226.5q-0.6562-1.3854-1.0573-3.5364-3.8281 4.2656-9.9531 4.2656-5.651 0-9.5156-3.3177-3.8646-3.3542-3.8646-8.4948 0-6.1979 4.5937-9.5885 4.5938-3.4271 13.599-3.4271h4.7031v-2.2969q0-2.7344-1.4218-4.3386-1.3855-1.6406-4.4115-1.6406-5.651 0-5.651 4.7396h-10.536q0-5.1406 4.5573-8.8229 4.5573-3.7188 12.214-3.7188 6.8177 0 11.302 3.4636 4.5209 3.4635 4.5209 10.391v17.573q0.073 5.25 1.5677 8.1302v0.6198zm-8.7135-7.3281q2.6614 0 4.5208-1.1667 1.8958-1.2031 2.6979-2.625v-6.8541h-4.3021q-4.1927 0-6.125 1.7864-1.9322 1.75-1.9322 4.3386 0 1.9687 1.3489 3.2448 1.3854 1.276 3.7917 1.276z"/><path d="m1862.7 1307.8 13.599-38.5h14.328v53.083h-10.974v-14.51l1.0937-24.938-14.292 39.448h-7.5105l-14.292-39.448 1.0937 24.938v14.51h-10.974v-53.083h14.328z"/><path d="m1897.9 1302.3q0-8.6042 4.8854-14.328 4.8854-5.7604 13.781-5.7604 9.0052 0 13.854 5.7604 4.849 5.724 4.849 14.328v0.7656q0 8.6042-4.849 14.328-4.8489 5.724-13.781 5.724-8.8594 0-13.745-5.5782-4.849-5.5781-4.9948-14zm10.573 0.7656q0 4.8125 1.8229 8.2031 1.8594 3.3542 6.3438 3.3542 4.4114 0 6.2344-3.3542 1.8593-3.3542 1.8593-8.9687 0-4.7032-1.8593-8.1303-1.823-3.4635-6.3073-3.4635-4.448 0-6.2709 3.4271t-1.8229 8.9323z"/><path d="m1966.1 1322.4-0.5104-4.1927q-3.901 4.9219-10.099 4.9219-7.3281 0-11.375-5.6875-4.0468-5.6875-4.0468-14.292v-0.7656q0-9.0052 4.0468-14.583 4.0469-5.5781 11.448-5.5781 5.7604 0 9.4791 4.2656v-20.088h10.573v56zm-15.458-19.25q0 4.7396 1.6771 8.0938 1.677 3.3177 5.8333 3.3177 4.8125 0 6.8906-4.0834v-15.641q-2.0052-4.0833-6.8177-4.0833-4.1198 0-5.8698 3.3541-1.7135 3.3542-1.7135 9.0417z"/><path d="m2007.8 1322.4-0.2917-4.0469q-3.8645 4.7761-10.792 4.7761-5.7969 0-9.4427-3.3907-3.6094-3.3906-3.6459-11.12v-25.667h10.536v25.594q0 3.2813 1.5677 4.6667 1.5677 1.349 4.0104 1.349 5.3594 0 7.4011-3.7552v-27.854h10.573v39.448z"/><path d="m2036.8 1266.4v56h-10.573v-56z"/><path d="m2079 1316q-1.8958 2.698-5.7604 4.9219-3.8646 2.224-9.625 2.224-9.1875 0-14.365-5.5417-5.1771-5.5781-5.2135-13.453v-1.5313q0-8.9323 4.9583-14.656 4.9948-5.724 13.453-5.724 8.4948 0 12.943 5.3229 4.4479 5.3229 4.4479 14.073v4.4844h-25.12q0.5468 3.8281 3.026 6.1979 2.4792 2.3334 6.5261 2.3334 6.0156 0 9.5156-4.4115zm-16.625-25.266q-3.3541 0-5.1771 2.2604-1.8229 2.2604-2.3698 5.9063h14.656v-0.8021q-0.073-3.1719-1.7865-5.25-1.677-2.1146-5.3229-2.1146z"/></g></g><path d="m219.21 326.78h190.69" fill="none" marker-end="url(#TriangleOutM)" stroke="#000" stroke-linecap="round" stroke-linejoin="round" stroke-width="2.6458"/><g transform="matrix(.26458 0 0 .26458 -9.6101 -60.074)" style="shape-inside:url(#rect110875);white-space:pre" aria-label="Custom Harvesting API"><path d="m935.33 1384.1h6q-0.6875 6.4687-4.875 10.781t-12.375 4.3125q-7.9375 0-12.812-5.6562-4.8438-5.6875-4.9375-15.094v-4.875q0-9.5625 4.9062-15.344 4.9375-5.7813 13.375-5.7813 7.7188 0 11.875 4.25t4.8438 10.969h-6q-0.6875-4.75-3.0625-7.5-2.375-2.7813-7.6562-2.7813-6.0312 0-9.1562 4.4375t-3.125 11.688v4.5938q0 6.7187 2.8438 11.469 2.8438 4.7188 8.9062 4.7188 5.75 0 8.0938-2.6875 2.375-2.6875 3.1562-7.5z"/><path d="m969.61 1398.6-0.125-3.3437q-3.3125 3.9687-9.875 3.9687-4.9688 0-8.0312-2.9375t-3.0625-9.6875v-21.812h5.7812v21.875q0 4.5625 1.9062 6.125 1.9375 1.5313 4.3125 1.5313 6.5312 0 8.8125-4.9063v-24.625h5.8125v33.812z"/><path d="m1003.6 1389.6q0-1.8438-1.375-3.3125-1.3438-1.5-6.25-2.5-5.6562-1.1563-9-3.3438-3.3438-2.2187-3.3438-6.4375 0-4 3.4062-6.9375 3.4375-2.9375 9.125-2.9375 6.0625 0 9.4687 3.0938 3.4063 3.0937 3.4063 7.4687h-5.7813q0-2.0937-1.8437-3.9375-1.8438-1.875-5.25-1.875-3.5938 0-5.1562 1.5625t-1.5625 3.4063q0 1.8437 1.4375 3 1.4688 1.125 6.1875 2.1875 6.2188 1.4062 9.25 3.6875 3.0625 2.2812 3.0625 6.4375 0 4.4687-3.5937 7.25-3.5625 2.7812-9.4688 2.7812-6.7188 0-10.281-3.4375t-3.5625-7.625h5.8125q0.1875 3.5938 2.75 4.9688 2.5938 1.3437 5.2812 1.3437 3.5312 0 5.4063-1.375 1.875-1.375 1.875-3.4687z"/><path d="m1031.3 1398.6q-1.9687 0.625-4.4687 0.625-3.2188 0-5.5-1.9687-2.2813-1.9688-2.2813-7.0625v-20.969h-6.1875v-4.4375h6.1875v-8.2187h5.7813v8.2187h6.3125v4.4375h-6.3125v21q0 2.5938 1.125 3.3125 1.125 0.7188 2.5937 0.7188 1.0938 0 2.7188-0.375z"/><path d="m1035.7 1381.3q0-7.3437 4.125-12.25 4.125-4.9375 11.219-4.9375 7.0938 0 11.219 4.8438 4.125 4.8125 4.2187 12.031v1.0313q0 7.3437-4.1562 12.25-4.125 4.9062-11.219 4.9062-7.125 0-11.281-4.9062-4.125-4.9063-4.125-12.25zm5.7812 0.7188q0 5.0312 2.375 8.7187 2.4063 3.6875 7.25 3.6875 4.7188 0 7.125-3.625 2.4063-3.6562 2.4375-8.6875v-0.8125q0-4.9687-2.4062-8.6875-2.4063-3.75-7.2188-3.75-4.7812 0-7.1875 3.75-2.375 3.7188-2.375 8.6875z"/><path d="m1087.3 1369q-5.6875 0-7.7813 4.7813v24.781h-5.8125v-33.812h5.5l0.1563 3.6875q3.6562-4.3125 10-4.3125 3.25 0 5.7812 1.3125 2.5625 1.2813 3.9063 4.125 1.6875-2.4375 4.375-3.9375 2.7187-1.5 6.375-1.5 5.4375 0 8.375 2.9063 2.9687 2.9062 2.9687 9.3125v22.219h-5.8125v-22.281q0-4.25-1.9687-5.75-1.9375-1.5313-5.25-1.5313-3.5 0-5.5 2.0938-2 2.0625-2.3125 5.0312v22.438h-5.7813v-22.25q0-3.9687-1.9687-5.625-1.9688-1.6875-5.25-1.6875z"/><path d="m1175.6 1398.6v-21.031h-22.938v21.031h-6.0313v-45.5h6.0313v19.562h22.938v-19.562h6v45.5z"/><path d="m1212.3 1398.6q-0.5625-1.2187-0.8125-3.5625-1.625 1.7188-4.0625 2.9688-2.4375 1.2187-5.5625 1.2187-5.1875 0-8.3125-2.9062-3.125-2.9063-3.125-7.125 0-5.4375 4.125-8.25 4.125-2.8438 11.094-2.8438h5.7188v-2.6875q0-3-1.8125-4.7812-1.7813-1.8125-5.3125-1.8125-3.2813 0-5.3125 1.625-2 1.5937-2 3.7187h-5.7813q0-3.625 3.6563-6.8125 3.6562-3.1875 9.7812-3.1875 5.5 0 9.0313 2.8125 3.5312 2.8125 3.5312 8.5v15.188q0 4.6875 1.1875 7.4375v0.5zm-9.5938-4.4375q3.125 0 5.4063-1.5625 2.3125-1.5625 3.25-3.4687v-6.9688h-5.375q-9.75 0.1875-9.75 6.25 0 2.4063 1.625 4.0938 1.625 1.6562 4.8437 1.6562z"/><path d="m1239.7 1369.7q-5.6563 0-7.7188 4.875v24h-5.7812v-33.812h5.625l0.125 3.875q2.7812-4.5 8.0312-4.5 1.625 0 2.5625 0.4375l-0.031 5.375q-1.2813-0.25-2.8125-0.25z"/><path d="m1273.9 1364.8-12.156 33.812h-4.4062l-12.25-33.812h5.9375l8.5937 25.906 8.375-25.906z"/><path d="m1305.8 1392.7q-1.6562 2.5-4.6875 4.5312-3.0312 2-8.0312 2-7.0625 0-11.312-4.5937-4.2188-4.5938-4.2188-11.75v-1.3125q0-5.5313 2.0938-9.4063 2.125-3.9062 5.5-5.9375 3.375-2.0625 7.1875-2.0625 7.25 0 10.562 4.75 3.3437 4.7188 3.3437 11.812v2.5938h-22.875q0.125 4.6562 2.75 7.9375 2.6563 3.25 7.2813 3.25 3.0625 0 5.1875-1.25t3.7187-3.3438zm-13.469-23.781q-3.4375 0-5.8125 2.5t-2.9688 7.1875h16.906v-0.4375q-0.2188-3.375-1.9688-6.3125-1.7187-2.9375-6.1562-2.9375z"/><path d="m1332.7 1389.6q0-1.8438-1.375-3.3125-1.3437-1.5-6.25-2.5-5.6562-1.1563-9-3.3438-3.3437-2.2187-3.3437-6.4375 0-4 3.4062-6.9375 3.4375-2.9375 9.125-2.9375 6.0625 0 9.4688 3.0938 3.4062 3.0937 3.4062 7.4687h-5.7812q0-2.0937-1.8438-3.9375-1.8437-1.875-5.25-1.875-3.5937 0-5.1562 1.5625t-1.5625 3.4063q0 1.8437 1.4375 3 1.4687 1.125 6.1875 2.1875 6.2187 1.4062 9.25 3.6875 3.0625 2.2812 3.0625 6.4375 0 4.4687-3.5938 7.25-3.5625 2.7812-9.4687 2.7812-6.7188 0-10.281-3.4375t-3.5625-7.625h5.8125q0.1875 3.5938 2.75 4.9688 2.5938 1.3437 5.2813 1.3437 3.5312 0 5.4062-1.375t1.875-3.4687z"/><path d="m1360.4 1398.6q-1.9688 0.625-4.4688 0.625-3.2187 0-5.5-1.9687-2.2812-1.9688-2.2812-7.0625v-20.969h-6.1875v-4.4375h6.1875v-8.2187h5.7812v8.2187h6.3125v4.4375h-6.3125v21q0 2.5938 1.125 3.3125 1.125 0.7188 2.5938 0.7188 1.0937 0 2.7187-0.375z"/><path d="m1367 1355.8q0-1.4063 0.8438-2.375 0.875-0.9688 2.5625-0.9688 1.6562 0 2.5312 0.9688 0.9063 0.9687 0.9063 2.375 0 1.3437-0.9063 2.3125-0.875 0.9375-2.5312 0.9375-1.6875 0-2.5625-0.9375-0.8438-0.9688-0.8438-2.3125zm6.25 8.9687v33.812h-5.8125v-33.812z"/><path d="m1396.6 1369q-2.7812 0-4.9062 1.5t-3.3438 3.9063v24.156h-5.7812v-33.812h5.4687l0.1875 4.2188q3.8438-4.8438 10.094-4.8438 4.9687 0 7.875 2.7813 2.9375 2.7812 2.9687 9.3437v22.312h-5.8125v-22.219q0-3.9688-1.75-5.6563-1.7187-1.6875-5-1.6875z"/><path d="m1430.7 1411.9q-2.625 0-6.4375-1.2813-3.8125-1.2812-6.0938-4.5937l3.0313-3.4375q3.75 4.5625 9.0625 4.5625 4.0937 0 6.5312-2.3125 2.4375-2.2813 2.4375-6.7188v-2.9687q-3.4375 4.0312-9.4687 4.0312-6.0938 0-9.6875-4.875-3.5938-4.875-3.5938-12.281v-0.6563q0-7.75 3.5625-12.5 3.5938-4.75 9.7813-4.75 6.2187 0 9.6562 4.375l0.2813-3.75h5.25v33.094q0 6.7187-4 10.375-4 3.6875-10.312 3.6875zm-8.4375-29.875q0 5.0312 2.0937 8.6562 2.125 3.5938 6.8125 3.5938 5.5 0 8.0625-5v-15.406q-1.0937-2.0937-3.0312-3.4687-1.9375-1.4063-4.9688-1.4063-4.7187 0-6.8437 3.6875-2.125 3.6563-2.125 8.6875z"/><path d="m1466.2 1398.6 17.344-45.5h5.2812l17.406 45.5h-6.1875l-4.3438-11.906h-19.031l-4.3125 11.906zm12.281-16.844h15.438l-7.7188-21.219z"/><path d="m1518.4 1380.7v17.844h-6.0313v-45.5h16.781q7.75 0 11.844 3.9063 4.125 3.9062 4.125 9.9687 0 6.5938-4.125 10.188-4.0937 3.5938-11.844 3.5938zm0-22.719v17.812h10.75q5.3125 0 7.625-2.4687 2.3125-2.4688 2.3125-6.3438 0-3.5-2.3125-6.25t-7.625-2.75z"/><path d="m1559.2 1353.1v45.5h-6.0313v-45.5z"/></g><g transform="translate(-9.3124 130.54)"><path d="m394.35 327.4h243.1v100.18h-243.1z" fill="#f9eae7" stroke="#a0183e" stroke-linecap="round" stroke-linejoin="round" stroke-width="2.6315" style="paint-order:markers stroke fill"/><g transform="matrix(.26458 0 0 .26458 0 24.096)" fill="#111" style="shape-inside:url(#rect126669);white-space:pre" aria-label="PostgreSQL DB"><path d="m1707.7 1218.9v18.74h-10.974v-53.083h20.745q9.4062 0 14.656 4.9583 5.2865 4.9584 5.2865 12.578 0 7.6927-5.2865 12.25-5.25 4.5573-14.656 4.5573zm0-25.484v16.661h9.7709q4.7031 0 6.7812-2.2239 2.0781-2.224 2.0781-5.6875 0-3.4636-2.0781-6.0886-2.0781-2.6614-6.7812-2.6614z"/><path d="m1742.1 1217.6q0-8.6042 4.8854-14.328 4.8854-5.7605 13.781-5.7605 9.0052 0 13.854 5.7605 4.8489 5.7239 4.8489 14.328v0.7656q0 8.6042-4.8489 14.328-4.849 5.724-13.781 5.724-8.8594 0-13.745-5.5781-4.849-5.5781-4.9948-14zm10.573 0.7656q0 4.8125 1.8229 8.2031 1.8594 3.3542 6.3438 3.3542 4.4115 0 6.2344-3.3542 1.8593-3.3541 1.8593-8.9687 0-4.7031-1.8593-8.1302-1.8229-3.4636-6.3073-3.4636-4.4479 0-6.2709 3.4271-1.8229 3.4271-1.8229 8.9323z"/><path d="m1807.3 1226.7q0-1.677-1.5677-2.8073-1.5313-1.1666-6.6354-2.2604-6.0886-1.3125-9.9896-4.0833-3.9011-2.7708-3.9011-7.8386 0-4.9218 4.1563-8.5677 4.1927-3.6823 11.557-3.6823 7.6927 0 12.104 3.6094 4.4114 3.6094 4.4114 9.1146h-10.536q0-2.2604-1.4583-3.7552t-4.5573-1.4948q-2.625 0-4.1198 1.2396-1.4583 1.2031-1.4583 3.026 0 1.6771 1.5677 2.7709 1.5677 1.0937 5.7969 1.9323 6.4166 1.276 10.646 3.901t4.2292 8.4948q0 5.2135-4.4844 8.6406t-12.104 3.4271q-8.276 0-12.651-4.2292-4.375-4.2656-4.375-9.0781h10.026q0.1459 3.099 2.2605 4.4479 2.151 1.349 4.9583 1.349 6.125 0 6.125-4.1563z"/><path d="m1844.1 1237.4q-2.9531 0.9844-6.3437 0.9844-5.1771 0-8.2396-2.6979t-3.0625-8.9688v-20.818h-5.7969v-7.6927h5.7969v-9.7344h10.536v9.7344h6.7084v7.6927h-6.7084v19.724q0 2.4792 1.0209 3.2812 1.0208 0.8021 3.026 0.8021 1.6042 0 3.0625-0.2916z"/><path d="m1865.2 1253.2q-3.5729 0-7.875-1.4948-4.2656-1.4948-6.8177-4.6667l4.6666-6.4166q3.9011 4.375 9.5886 4.375 4.1927 0 6.526-2.2604 2.3334-2.224 2.3334-6.3803v-2.1145q-3.7188 4.1562-9.5886 4.1562-7.3281 0-11.594-5.6146-4.2657-5.6146-4.3386-14.073v-1.0573q0-9.0052 4.2657-14.583 4.302-5.5782 11.74-5.5782 6.5261 0 10.136 4.448l0.401-3.7188h9.5521v38.099q0 8.1302-5.2865 12.505-5.25 4.375-13.708 4.375zm-6.5625-34.781q0 4.7396 1.9323 8.0938 1.9687 3.3177 6.125 3.3177 4.8125 0 6.9271-3.6458v-16.552q-2.0782-3.6094-6.8542-3.6094-4.1198 0-6.125 3.3906-2.0052 3.3542-2.0052 8.2396z"/><path d="m1910.6 1207.8q-5.9428 0-7.8021 4.0469v25.849h-10.573v-39.448h9.9532l0.3281 4.7031q3.099-5.4323 8.7865-5.4323 2.0052 0 3.2448 0.474l-0.1094 10.099z"/><path d="m1952.4 1231.3q-1.8958 2.6979-5.7604 4.9219-3.8646 2.2239-9.625 2.2239-9.1875 0-14.365-5.5417-5.1771-5.5781-5.2135-13.453v-1.5312q0-8.9323 4.9583-14.656 4.9948-5.724 13.453-5.724 8.4948 0 12.943 5.323 4.448 5.3229 4.448 14.073v4.4844h-25.12q0.5468 3.8281 3.026 6.1979 2.4792 2.3333 6.526 2.3333 6.0157 0 9.5157-4.4114zm-16.625-25.266q-3.3542 0-5.1771 2.2605-1.8229 2.2604-2.3698 5.9062h14.656v-0.8021q-0.073-3.1719-1.7865-5.25-1.677-2.1146-5.3229-2.1146z"/><path d="m1987.4 1223.8q0-2.6615-1.8229-4.4115-1.8229-1.7865-8.8594-4.0469-7-2.2969-12.104-5.9062-5.3593-3.7552-5.3593-10.682 0-6.6719 5.5052-10.755 5.5052-4.0834 14.109-4.0834 8.8229 0 14.146 4.6302 5.3229 4.5938 5.3229 11.74h-10.938q0-3.3542-2.151-5.5052-2.1511-2.151-6.5625-2.151-4.3021 0-6.4167 1.8229-2.0781 1.7864-2.0781 4.3385 0 2.625 2.6979 4.375t7.8385 3.3177q8.7136 2.6615 13.162 6.6719 4.4844 4.0104 4.4844 10.573 0 6.9636-5.25 10.865-5.25 3.8646-14 3.8646-5.2865 0-10.208-1.8594-4.9219-1.8593-8.0937-5.7239-3.1719-3.8646-3.1719-9.8802h10.974q0 4.8489 2.8802 6.8177 2.9166 1.9687 7.6198 1.9687 4.2291 0 6.2343-1.7135 2.0417-1.7136 2.0417-4.2656z"/><path d="m2049.1 1241-6.9271 6.1614-11.266-9.0781q-1.9687 0.3281-4.0833 0.3281-9.9896 0-16.333-6.9635-6.3437-6.9636-6.3437-19.104v-2.3698q0-12.141 6.3073-19.104 6.3073-7 16.297-7 10.026 0 16.333 7 6.3073 6.9636 6.3073 19.104v2.3698q0 7.3646-2.4063 12.906-2.4062 5.5417-6.6354 8.823zm-10.792-31.099q0-8.3125-3.026-12.651-3.026-4.3385-8.5312-4.3385-5.4688 0-8.4948 4.3021-2.9896 4.2656-3.0261 12.505v2.625q0 8.276 3.0261 12.688 3.0625 4.375 8.5677 4.375t8.4583-4.3385q2.9896-4.3386 3.026-12.542z"/><path d="m2091.5 1228.9v8.8229h-34.161v-53.083h10.974v44.26z"/><path d="m2116.4 1237.7v-53.083h16.37q10.719 0 17.464 7 6.7812 7 6.7812 18.375v2.3698q0 11.375-6.7812 18.375-6.7448 6.9635-17.609 6.9635zm10.974-44.224v35.401h5.25q6.4531 0 9.8073-4.1927 3.3906-4.1927 3.4635-11.995v-2.7708q0-8.0938-3.2083-12.214-3.1719-4.1198-9.5886-4.2291z"/><path d="m2204.4 1222q0 7.6563-4.8854 11.63-4.8855 3.9375-13.927 4.0104h-20.636v-53.083h18.63q9.2239 0 14.438 3.5364 5.2135 3.5365 5.2135 10.974 0 3.6094-1.8229 6.6354-1.8229 3.0261-5.7604 4.5938 4.6666 1.1666 6.7083 4.5208t2.0417 7.1823zm-28.474-28.583v13.344h7.6563q8.677 0 8.677-6.5625 0-6.6354-8.3125-6.7812zm17.536 28.474q0-7.1458-7.2188-7.401h-10.318v14.328h9.3333q4.1928 0 6.198-1.9687 2.0052-1.9688 2.0052-4.9584z"/></g><path d="m516.41 370.22h121.17v57.468h-121.17z" fill="#f0dbd8" stroke="#a0183e" stroke-linecap="round" stroke-linejoin="round" stroke-width="2.5268" style="paint-order:markers stroke fill"/><path d="m394.23 370.21h121.17v57.469h-121.17z" fill="#f0dbd8" stroke="#a0183e" stroke-linecap="round" stroke-linejoin="round" stroke-width="2.5268" style="paint-order:markers stroke fill"/><g transform="matrix(.26458 0 0 .26458 -63.065 80.516)" fill="#111" style="shape-inside:url(#rect141011);white-space:pre" aria-label="Own Data"><path d="m1853.9 1204.6q0 10.406-5.4063 16.375-5.375 5.9688-13.938 5.9688t-14-5.9688q-5.4375-5.9687-5.4375-16.375v-2.0312q0-10.406 5.4063-16.375 5.4062-6 13.969-6t13.969 6q5.4375 5.9687 5.4375 16.375zm-9.5-2.0937q0-7.125-2.5938-10.844-2.5937-3.7187-7.3125-3.7187-4.7187 0-7.2812 3.6875-2.5625 3.6562-2.5938 10.719v2.25q0 7.0938 2.5938 10.875 2.5937 3.75 7.3437 3.75 4.7188 0 7.25-3.7187 2.5625-3.7188 2.5938-10.75z"/><path d="m1902.7 1192.5-8.5938 33.812h-7.5625l-6.4375-21.281-6.4062 21.281h-7.5313l-8.625-33.812h8.7188l4.4687 21.5 6.125-21.5h6.5313l6.1875 21.469 4.4062-21.469z"/><path d="m1921.7 1199.2q-3.8438 0-5.7188 3.25v23.875h-9.0312v-33.812h8.4687l0.3125 3.875q3.625-4.5 9.7188-4.5 4.7812 0 7.7187 2.8437 2.9375 2.8438 2.9688 9.9063v21.688h-9.0625v-21.562q0-3.25-1.4063-4.4063-1.375-1.1562-3.9687-1.1562z"/><path d="m1959.5 1226.3v-45.5h14.031q9.1875 0 14.969 6 5.8125 6 5.8125 15.75v2.0312q0 9.75-5.8125 15.75-5.7812 5.9688-15.094 5.9688zm9.4063-37.906v30.344h4.5q5.5312 0 8.4062-3.5938 2.9063-3.5937 2.9688-10.281v-2.375q0-6.9375-2.75-10.469-2.7188-3.5312-8.2188-3.625z"/><path d="m2020.1 1226.3q-0.5625-1.1875-0.9062-3.0313-3.2813 3.6563-8.5313 3.6563-4.8437 0-8.1562-2.8438-3.3125-2.875-3.3125-7.2812 0-5.3125 3.9375-8.2188 3.9375-2.9375 11.656-2.9375h4.0313v-1.9687q0-2.3438-1.2188-3.7188-1.1875-1.4062-3.7812-1.4062-4.8438 0-4.8438 4.0625h-9.0312q0-4.4063 3.9062-7.5625 3.9063-3.1875 10.469-3.1875 5.8437 0 9.6875 2.9687 3.875 2.9688 3.875 8.9063v15.062q0.062 4.5 1.3437 6.9687v0.5313zm-7.4687-6.2813q2.2812 0 3.875-1 1.625-1.0312 2.3125-2.25v-5.875h-3.6875q-3.5938 0-5.25 1.5313-1.6563 1.5-1.6563 3.7187 0 1.6875 1.1563 2.7813 1.1875 1.0937 3.25 1.0937z"/><path d="m2051.8 1226.1q-2.5313 0.8438-5.4375 0.8438-4.4375 0-7.0625-2.3125t-2.625-7.6875v-17.844h-4.9688v-6.5937h4.9688v-8.3438h9.0312v8.3438h5.75v6.5937h-5.75v16.906q0 2.125 0.875 2.8125t2.5938 0.6875q1.375 0 2.625-0.25z"/><path d="m2076.1 1226.3q-0.5625-1.1875-0.9062-3.0313-3.2813 3.6563-8.5313 3.6563-4.8437 0-8.1562-2.8438-3.3125-2.875-3.3125-7.2812 0-5.3125 3.9375-8.2188 3.9375-2.9375 11.656-2.9375h4.0313v-1.9687q0-2.3438-1.2188-3.7188-1.1875-1.4062-3.7812-1.4062-4.8438 0-4.8438 4.0625h-9.0312q0-4.4063 3.9062-7.5625 3.9063-3.1875 10.469-3.1875 5.8437 0 9.6875 2.9687 3.875 2.9688 3.875 8.9063v15.062q0.062 4.5 1.3437 6.9687v0.5313zm-7.4687-6.2813q2.2812 0 3.875-1 1.625-1.0312 2.3125-2.25v-5.875h-3.6875q-3.5938 0-5.25 1.5313-1.6563 1.5-1.6563 3.7187 0 1.6875 1.1563 2.7813 1.1875 1.0937 3.25 1.0937z"/></g><g transform="matrix(.26458 0 0 .26458 62.48 71.749)" fill="#111" style="shape-inside:url(#rect144635);white-space:pre" aria-label="Opencast Mirror/Cache"><path d="m1853.9 1195q0 10.406-5.4063 16.375-5.375 5.9688-13.938 5.9688t-14-5.9688q-5.4375-5.9687-5.4375-16.375v-2.0312q0-10.406 5.4063-16.375 5.4062-6 13.969-6t13.969 6q5.4375 5.9687 5.4375 16.375zm-9.5-2.0937q0-7.125-2.5938-10.844-2.5937-3.7187-7.3125-3.7187-4.7187 0-7.2812 3.6875-2.5625 3.6562-2.5938 10.719v2.25q0 7.0938 2.5938 10.875 2.5937 3.75 7.3437 3.75 4.7188 0 7.25-3.7187 2.5625-3.7188 2.5938-10.75z"/><path d="m1877.5 1217.3q-5.0625 0-8.2812-3.5938v15.969h-9.0625v-46.812h8.4062l0.3438 3.2812q3.2187-3.9062 8.5-3.9062 6.4375 0 9.8125 4.7187 3.4062 4.7188 3.4062 12.438v0.6563q0 7.375-3.4062 12.312-3.375 4.9375-9.7188 4.9375zm-2.4375-27.75q-4.2187 0-5.8437 3.2812v13.844q1.6875 3.3437 5.9062 3.3437 3.5313 0 5-2.9062 1.4688-2.9375 1.4688-7.7188 0-4.1875-1.5313-7-1.5-2.8437-5-2.8437z"/><path d="m1924.9 1211.2q-1.625 2.3125-4.9375 4.2187-3.3125 1.9063-8.25 1.9063-7.875 0-12.312-4.75-4.4375-4.7813-4.4688-11.531v-1.3125q0-7.6562 4.25-12.562 4.2813-4.9062 11.531-4.9062 7.2812 0 11.094 4.5625t3.8125 12.062v3.8437h-21.531q0.4687 3.2813 2.5937 5.3125 2.125 2 5.5938 2 5.1562 0 8.1562-3.7812zm-14.25-21.656q-2.875 0-4.4375 1.9375t-2.0313 5.0625h12.562v-0.6875q-0.062-2.7187-1.5312-4.5-1.4375-1.8125-4.5625-1.8125z"/><path d="m1945.3 1189.6q-3.8437 0-5.7187 3.25v23.875h-9.0313v-33.812h8.4688l0.3125 3.875q3.625-4.5 9.7187-4.5 4.7813 0 7.7188 2.8437 2.9375 2.8438 2.9687 9.9063v21.688h-9.0625v-21.562q0-3.25-1.4062-4.4063-1.375-1.1562-3.9688-1.1562z"/><path d="m1980.7 1210q2.4688 0 4.0625-1.3437 1.5938-1.375 1.625-3.6875h8.5q-0.062 5.375-4.125 8.8437-4.0312 3.4688-9.9062 3.4688-7.8438 0-11.75-4.9375-3.875-4.9688-3.875-12.156v-0.875q0-7.1562 3.875-12.125 3.875-4.9687 11.719-4.9687 6.2188 0 10.094 3.5625 3.9062 3.5625 3.9687 9.6562h-8.5q-0.031-2.4687-1.5-4.1875-1.4687-1.75-4.2187-1.75-3.9375 0-5.1563 2.9688-1.2187 2.9375-1.2187 7.7187 0 3.9063 1.1875 6.875 1.2187 2.9375 5.2187 2.9375z"/><path d="m2019.6 1216.7q-0.5625-1.1875-0.9062-3.0313-3.2813 3.6563-8.5313 3.6563-4.8437 0-8.1562-2.8438-3.3125-2.875-3.3125-7.2812 0-5.3125 3.9375-8.2188 3.9375-2.9375 11.656-2.9375h4.0313v-1.9687q0-2.3438-1.2188-3.7188-1.1875-1.4062-3.7812-1.4062-4.8438 0-4.8438 4.0625h-9.0312q0-4.4063 3.9062-7.5625 3.9063-3.1875 10.469-3.1875 5.8437 0 9.6875 2.9687 3.875 2.9688 3.875 8.9063v15.062q0.062 4.5 1.3437 6.9687v0.5313zm-7.4687-6.2813q2.2812 0 3.875-1 1.625-1.0312 2.3125-2.25v-5.875h-3.6875q-3.5938 0-5.25 1.5313-1.6563 1.5-1.6563 3.7187 0 1.6875 1.1563 2.7813 1.1875 1.0937 3.25 1.0937z"/><path d="m2052.6 1207.3q0-1.4375-1.3438-2.4063-1.3125-1-5.6875-1.9375-5.2187-1.125-8.5625-3.5-3.3437-2.375-3.3437-6.7187 0-4.2188 3.5625-7.3438 3.5937-3.1562 9.9062-3.1562 6.5938 0 10.375 3.0937 3.7813 3.0938 3.7813 7.8125h-9.0313q0-1.9375-1.25-3.2187-1.25-1.2813-3.9062-1.2813-2.25 0-3.5313 1.0625-1.25 1.0313-1.25 2.5938 0 1.4375 1.3438 2.375 1.3437 0.9375 4.9687 1.6562 5.5 1.0938 9.125 3.3438t3.625 7.2812q0 4.4688-3.8437 7.4063-3.8438 2.9375-10.375 2.9375-7.0938 0-10.844-3.625-3.75-3.6563-3.75-7.7813h8.5938q0.125 2.6563 1.9375 3.8125 1.8437 1.1563 4.25 1.1563 5.25 0 5.25-3.5625z"/><path d="m2084.2 1216.5q-2.5313 0.8438-5.4375 0.8438-4.4375 0-7.0625-2.3125t-2.625-7.6875v-17.844h-4.9688v-6.5937h4.9688v-8.3438h9.0312v8.3438h5.75v6.5937h-5.75v16.906q0 2.125 0.875 2.8125t2.5938 0.6875q1.375 0 2.625-0.25z"/><path d="m1785.8 1286.4 11.656-33h12.281v45.5h-9.4062v-12.438l0.9375-21.375-12.25 33.812h-6.4375l-12.25-33.812 0.9375 21.375v12.438h-9.4063v-45.5h12.281z"/><path d="m1817.3 1256.3q0-2.0313 1.375-3.3438 1.375-1.3437 3.6875-1.3437t3.6875 1.3437q1.375 1.3125 1.375 3.3438 0 2-1.375 3.3437-1.375 1.3125-3.6875 1.3125t-3.6875-1.3125q-1.375-1.3437-1.375-3.3437zm9.625 8.75v33.812h-9.0625v-33.812z"/><path d="m1850.1 1273.3q-5.0937 0-6.6875 3.4687v22.156h-9.0625v-33.812h8.5313l0.2812 4.0312q2.6563-4.6562 7.5313-4.6562 1.7187 0 2.7812 0.4062l-0.094 8.6563z"/><path d="m1873.5 1273.3q-5.0937 0-6.6875 3.4687v22.156h-9.0625v-33.812h8.5313l0.2812 4.0312q2.6563-4.6562 7.5313-4.6562 1.7187 0 2.7812 0.4062l-0.094 8.6563z"/><path d="m1878.5 1281.7q0-7.375 4.1875-12.281 4.1875-4.9375 11.812-4.9375 7.7187 0 11.875 4.9375 4.1562 4.9062 4.1562 12.281v0.6563q0 7.375-4.1562 12.281-4.1563 4.9063-11.812 4.9063-7.5938 0-11.781-4.7813-4.1562-4.7812-4.2812-12zm9.0625 0.6563q0 4.125 1.5625 7.0312 1.5937 2.875 5.4375 2.875 3.7812 0 5.3437-2.875 1.5938-2.875 1.5938-7.6875 0-4.0312-1.5938-6.9687-1.5625-2.9688-5.4062-2.9688-3.8125 0-5.375 2.9375t-1.5625 7.6563z"/><path d="m1931.9 1273.3q-5.0937 0-6.6875 3.4687v22.156h-9.0625v-33.812h8.5313l0.2812 4.0312q2.6563-4.6562 7.5313-4.6562 1.7187 0 2.7812 0.4062l-0.094 8.6563z"/><path d="m1959.1 1253.4-16.75 49.406h-6.7188l16.75-49.406z"/><path d="m1990.4 1283.7h9.375q-0.4688 6.9375-5.2188 11.375-4.7187 4.4063-13.094 4.4063-8.75 0-13.781-5.875-5.0312-5.9063-5.0312-16v-2.9688q0-10.094 5.1562-16 5.1563-5.9375 13.75-5.9375 8.5313 0 13.062 4.5625 4.5313 4.5313 5.1875 11.531h-9.375q-0.3125-4.0625-2.2812-6.2188-1.9375-2.1875-6.5938-2.1875-9.125 0-9.375 13.469v3.75q0 7.0625 2.125 10.625 2.1563 3.5625 7.1563 3.5625 4.4375 0 6.5-2 2.0937-2.0313 2.4375-6.0938z"/><path d="m2025 1298.9q-0.5625-1.1875-0.9062-3.0313-3.2813 3.6563-8.5313 3.6563-4.8437 0-8.1562-2.8438-3.3125-2.875-3.3125-7.2812 0-5.3125 3.9375-8.2188 3.9375-2.9375 11.656-2.9375h4.0313v-1.9687q0-2.3438-1.2188-3.7188-1.1875-1.4062-3.7812-1.4062-4.8438 0-4.8438 4.0625h-9.0312q0-4.4063 3.9062-7.5625 3.9063-3.1875 10.469-3.1875 5.8437 0 9.6875 2.9687 3.875 2.9688 3.875 8.9063v15.062q0.062 4.5 1.3437 6.9687v0.5313zm-7.4687-6.2813q2.2812 0 3.875-1 1.625-1.0312 2.3125-2.25v-5.875h-3.6875q-3.5938 0-5.25 1.5313-1.6563 1.5-1.6563 3.7187 0 1.6875 1.1563 2.7813 1.1875 1.0937 3.25 1.0937z"/><path d="m2053.7 1292.2q2.4687 0 4.0625-1.3437 1.5937-1.375 1.625-3.6875h8.5q-0.062 5.375-4.125 8.8437-4.0313 3.4688-9.9063 3.4688-7.8437 0-11.75-4.9375-3.875-4.9688-3.875-12.156v-0.875q0-7.1562 3.875-12.125 3.875-4.9687 11.719-4.9687 6.2187 0 10.094 3.5625 3.9063 3.5625 3.9688 9.6562h-8.5q-0.031-2.4687-1.5-4.1875-1.4688-1.75-4.2188-1.75-3.9375 0-5.1562 2.9688-1.2188 2.9375-1.2188 7.7187 0 3.9063 1.1875 6.875 1.2188 2.9375 5.2188 2.9375z"/><path d="m2087.6 1271.8q-3.9375 0-5.7187 3.0312v24.094h-9.0313v-48h9.0313v17.844q3.5312-4.2812 9.0312-4.2812 4.9688 0 8.0313 2.9375 3.0937 2.9375 3.125 10.031v21.469h-9.0625v-21.375q0-3.2813-1.4063-4.5-1.4062-1.25-4-1.25z"/><path d="m2137.7 1293.4q-1.625 2.3125-4.9375 4.2187-3.3125 1.9063-8.25 1.9063-7.875 0-12.312-4.75-4.4375-4.7813-4.4687-11.531v-1.3125q0-7.6562 4.25-12.562 4.2812-4.9062 11.531-4.9062 7.2813 0 11.094 4.5625t3.8125 12.062v3.8437h-21.531q0.4688 3.2813 2.5938 5.3125 2.125 2 5.5937 2 5.1563 0 8.1563-3.7812zm-14.25-21.656q-2.875 0-4.4375 1.9375t-2.0312 5.0625h12.562v-0.6875q-0.062-2.7187-1.5313-4.5-1.4375-1.8125-4.5625-1.8125z"/></g></g><path d="m506.27 396.11v40.288" fill="none" marker-end="url(#TriangleOutM)" marker-start="url(#TriangleInM)" stroke="#000" stroke-linecap="round" stroke-linejoin="round" stroke-width="2.6458"/><g transform="translate(-388.18 101.56)"><path d="m437.88 351.36h160.88v81.996h-160.88z" fill="#f9eae7" stroke="#a0183e" stroke-linecap="round" stroke-linejoin="round" stroke-width="1.9367" style="paint-order:markers stroke fill"/><g transform="matrix(.26458 0 0 .26458 2.2421 71.91)" fill="#111" style="shape-inside:url(#rect152165);white-space:pre" aria-label="DB"><path d="m1906.5 1237.7v-53.083h16.37q10.719 0 17.464 7 6.7813 7 6.7813 18.375v2.3698q0 11.375-6.7813 18.375-6.7448 6.9635-17.609 6.9635zm10.974-44.224v35.401h5.25q6.4531 0 9.8073-4.1927 3.3906-4.1927 3.4635-11.995v-2.7708q0-8.0938-3.2083-12.214-3.1719-4.1198-9.5886-4.2291z"/><path d="m1994.5 1222q0 7.6563-4.8855 11.63-4.8854 3.9375-13.927 4.0104h-20.635v-53.083h18.63q9.224 0 14.438 3.5364 5.2136 3.5365 5.2136 10.974 0 3.6094-1.8229 6.6354-1.823 3.0261-5.7605 4.5938 4.6667 1.1666 6.7084 4.5208t2.0417 7.1823zm-28.474-28.583v13.344h7.6562q8.6771 0 8.6771-6.5625 0-6.6354-8.3125-6.7812zm17.536 28.474q0-7.1458-7.2187-7.401h-10.318v14.328h9.3333q4.1927 0 6.1979-1.9687 2.0052-1.9688 2.0052-4.9584z"/></g></g><path d="m130.14 392.36v40.288" fill="none" marker-end="url(#TriangleOutM)" marker-start="url(#TriangleInM)" stroke="#000" stroke-linecap="round" stroke-linejoin="round" stroke-width="2.6458"/><path d="m599.78 326.78h190.69" fill="none" marker-end="url(#TriangleOutM)" marker-start="url(#a)" stroke="#000" stroke-linecap="round" stroke-linejoin="round" stroke-width="2.6458"/><g transform="matrix(.26458 0 0 .26458 409.27 -60.074)" style="shape-inside:url(#rect156643);white-space:pre" aria-label="GraphQL API"><path d="m941.48 1375.9v16.656q-1.2812 1.875-4.875 4.25t-11.219 2.375q-8.3125 0-13.656-5.6875-5.3438-5.7187-5.3438-15.938v-3.5312q0-10.156 4.75-15.875 4.75-5.7188 13.562-5.7188 7.8125 0 11.844 3.9375 4.0625 3.9375 4.9375 10h-6.0312q-0.625-3.6875-3.0938-6.3437-2.4375-2.6563-7.6562-2.6563-6.2812 0-9.25 4.4375-2.9688 4.4063-3 12v3.75q0 7.875 3.5625 12.312 3.5625 4.4063 9.4062 4.4063 4.8438 0 7-1.125 2.1562-1.1563 3.0625-2.1875v-10.188h-10.531v-4.875z"/><path d="m964.08 1369.7q-5.6562 0-7.7188 4.875v24h-5.7812v-33.812h5.625l0.125 3.875q2.7812-4.5 8.0312-4.5 1.625 0 2.5625 0.4375l-0.0312 5.375q-1.2812-0.25-2.8125-0.25z"/><path d="m991.89 1398.6q-0.5625-1.2187-0.8125-3.5625-1.625 1.7188-4.0625 2.9688-2.4375 1.2187-5.5625 1.2187-5.1875 0-8.3125-2.9062-3.125-2.9063-3.125-7.125 0-5.4375 4.125-8.25 4.125-2.8438 11.094-2.8438h5.7188v-2.6875q0-3-1.8125-4.7812-1.7812-1.8125-5.3125-1.8125-3.2812 0-5.3125 1.625-2 1.5937-2 3.7187h-5.7812q0-3.625 3.6562-6.8125t9.7812-3.1875q5.5 0 9.0312 2.8125t3.5312 8.5v15.188q0 4.6875 1.1875 7.4375v0.5zm-9.5938-4.4375q3.125 0 5.4062-1.5625 2.3125-1.5625 3.25-3.4687v-6.9688h-5.375q-9.75 0.1875-9.75 6.25 0 2.4063 1.625 4.0938 1.625 1.6562 4.8438 1.6562z"/><path d="m1021.3 1399.2q-6.0937 0-9.6562-3.9062v16.281h-5.8125v-46.812h5.3125l0.2812 3.7188q3.5625-4.3438 9.7813-4.3438 6.4062 0 9.8125 4.75 3.4062 4.75 3.4062 12.5v0.6563q0 7.4062-3.4375 12.281-3.4062 4.875-9.6875 4.875zm-1.7812-30.188q-5.25 0-7.875 4.6563v16.188q2.6562 4.5937 7.9375 4.5937 4.6875 0 6.8437-3.6875 2.1875-3.6875 2.1875-8.7187v-0.6563q0-5.0312-2.1875-8.6875-2.1562-3.6875-6.9062-3.6875z"/><path d="m1055.8 1369q-2.7813 0-4.9063 1.5t-3.3437 3.9063v24.156h-5.7813v-48h5.7813v18.219q3.8437-4.6563 9.9687-4.6563 4.9688 0 7.875 2.7813 2.9375 2.7812 2.9688 9.3437v22.312h-5.8125v-22.219q0-3.9688-1.75-5.6563-1.7188-1.6875-5-1.6875z"/><path d="m1112.8 1402.5-4.0625 3.75-9.5938-7.625q-2.25 0.5625-4.75 0.5625-8.0937 0-13.219-5.8437-5.125-5.8438-5.125-16.094v-2.875q0-10.219 5.0937-16.062 5.0938-5.875 13.188-5.875 8.25 0 13.219 5.7813 5 5.75 5.0937 15.781v3.25q0 6.5625-2.0937 11.375-2.0938 4.7813-5.8438 7.4688zm-6.125-28.188q0-8.125-3.25-12.438t-9.0938-4.3125q-5.5937 0-8.9687 4.3125-3.3438 4.3125-3.3438 12.438v2.9375q0 8.1875 3.375 12.531 3.4063 4.3125 9 4.3125 5.875 0 9.0625-4.3125 3.2188-4.3438 3.2188-12.531z"/><path d="m1149.5 1393.7v4.9062h-27.594v-45.5h6.0312v40.594z"/><path d="m1167.9 1398.6 17.344-45.5h5.2812l17.406 45.5h-6.1875l-4.3438-11.906h-19.031l-4.3125 11.906zm12.281-16.844h15.438l-7.7188-21.219z"/><path d="m1220 1380.7v17.844h-6.0313v-45.5h16.781q7.75 0 11.844 3.9063 4.125 3.9062 4.125 9.9687 0 6.5938-4.125 10.188-4.0937 3.5938-11.844 3.5938zm0-22.719v17.812h10.75q5.3125 0 7.625-2.4687 2.3125-2.4688 2.3125-6.3438 0-3.5-2.3125-6.25t-7.625-2.75z"/><path d="m1260.9 1353.1v45.5h-6.0313v-45.5z"/></g><g transform="translate(-385.49 -251.6)"><path d="m437.1 306.02h156.96c1.4373 0 2.5944 1.1571 2.5944 2.5944v82.261c0 1.4373-1.1571 2.5944-2.5944 2.5944h-156.96c-1.4373 0-2.5944-1.1571-2.5944-2.5944v-82.261c0-1.4373 1.1571-2.5944 2.5944-2.5944z" fill="#e5e5e5" stroke="#5c5c5c" stroke-linecap="round" stroke-linejoin="round" stroke-width="2.0079" style="paint-order:markers stroke fill"/><g transform="matrix(.26458 0 0 .26458 -.17922 3.6716)" fill="#25367f" style="shape-inside:url(#rect165789);white-space:pre" aria-label="Opencast Media &amp; Asset Fileserver"><path d="m1838.4 1201.1q0 12.141-6.3073 19.104-6.2708 6.9635-16.26 6.9635t-16.333-6.9635q-6.3437-6.9636-6.3437-19.104v-2.3698q0-12.141 6.3073-19.104 6.3073-7 16.297-7 9.9895 0 16.297 7 6.3438 6.9636 6.3438 19.104zm-11.083-2.4427q0-8.3125-3.0261-12.651-3.026-4.3385-8.5312-4.3385-5.5053 0-8.4948 4.3021-2.9896 4.2656-3.0261 12.505v2.625q0 8.276 3.0261 12.688 3.026 4.375 8.5677 4.375 5.5052 0 8.4583-4.3386 2.9896-4.3385 3.0261-12.542z"/><path d="m1865.9 1227.2q-5.9062 0-9.6614-4.1927v18.63h-10.573v-54.615h9.8073l0.4011 3.8281q3.7552-4.5573 9.9167-4.5573 7.5104 0 11.448 5.5052 3.9739 5.5053 3.9739 14.51v0.7656q0 8.6042-3.9739 14.365-3.9375 5.7604-11.339 5.7604zm-2.8437-32.375q-4.9219 0-6.8177 3.8281v16.151q1.9687 3.901 6.8906 3.901 4.1198 0 5.8333-3.3906 1.7136-3.4271 1.7136-9.0052 0-4.8854-1.7865-8.1667-1.75-3.3177-5.8333-3.3177z"/><path d="m1921.3 1220.1q-1.8959 2.6979-5.7604 4.9218-3.8646 2.224-9.6251 2.224-9.1875 0-14.364-5.5417-5.1771-5.5781-5.2136-13.453v-1.5312q0-8.9323 4.9583-14.656 4.9948-5.724 13.453-5.724 8.4948 0 12.943 5.323 4.4479 5.3229 4.4479 14.073v4.4844h-25.12q0.5469 3.8281 3.0261 6.1979 2.4791 2.3333 6.526 2.3333 6.0156 0 9.5156-4.4115zm-16.625-25.266q-3.3542 0-5.1771 2.2604-1.8229 2.2605-2.3698 5.9063h14.656v-0.8021q-0.073-3.1719-1.7864-5.25-1.6771-2.1146-5.3229-2.1146z"/><path d="m1945.1 1194.8q-4.4844 0-6.6719 3.7917v27.854h-10.536v-39.448h9.8802l0.3646 4.5208q4.2292-5.25 11.339-5.25 5.5781 0 9.0052 3.3177 3.4271 3.3178 3.4635 11.557v25.302h-10.573v-25.156q0-3.7917-1.6406-5.1407-1.6042-1.3489-4.6302-1.3489z"/><path d="m1986.3 1218.7q2.8802 0 4.7396-1.5677 1.8594-1.6042 1.8958-4.3021h9.9167q-0.073 6.2709-4.8125 10.318-4.7031 4.0469-11.557 4.0469-9.151 0-13.708-5.7604-4.5209-5.7969-4.5209-14.182v-1.0208q0-8.349 4.5209-14.146 4.5208-5.7969 13.672-5.7969 7.2553 0 11.776 4.1563 4.5573 4.1562 4.6302 11.266h-9.9167q-0.036-2.8802-1.75-4.8854-1.7135-2.0417-4.9218-2.0417-4.5938 0-6.0157 3.4636-1.4219 3.4271-1.4219 9.0052 0 4.5573 1.3855 8.0208 1.4218 3.4271 6.0885 3.4271z"/><path d="m2031.7 1226.5q-0.6562-1.3854-1.0573-3.5364-3.8281 4.2656-9.9531 4.2656-5.6511 0-9.5156-3.3177-3.8646-3.3542-3.8646-8.4948 0-6.1979 4.5937-9.5885 4.5938-3.4271 13.599-3.4271h4.7031v-2.2969q0-2.7344-1.4219-4.3386-1.3854-1.6406-4.4114-1.6406-5.6511 0-5.6511 4.7396h-10.536q0-5.1406 4.5573-8.8229 4.5573-3.7188 12.214-3.7188 6.8177 0 11.302 3.4636 4.5208 3.4635 4.5208 10.391v17.573q0.073 5.25 1.5677 8.1302v0.6198zm-8.7135-7.3281q2.6614 0 4.5208-1.1667 1.8958-1.2031 2.6979-2.625v-6.8541h-4.3021q-4.1927 0-6.125 1.7864-1.9323 1.75-1.9323 4.3386 0 1.9687 1.349 3.2448 1.3854 1.276 3.7917 1.276z"/><path d="m2070.2 1215.5q0-1.6771-1.5677-2.8073-1.5313-1.1666-6.6354-2.2604-6.0886-1.3125-9.9896-4.0833-3.9011-2.7708-3.9011-7.8386 0-4.9218 4.1563-8.5677 4.1927-3.6823 11.557-3.6823 7.6927 0 12.104 3.6094 4.4114 3.6094 4.4114 9.1146h-10.536q0-2.2604-1.4584-3.7552-1.4583-1.4948-4.5573-1.4948-2.625 0-4.1198 1.2396-1.4583 1.2031-1.4583 3.026 0 1.6771 1.5677 2.7709 1.5677 1.0937 5.7969 1.9323 6.4167 1.276 10.646 3.901 4.2292 2.625 4.2292 8.4948 0 5.2135-4.4844 8.6406t-12.104 3.4271q-8.276 0-12.651-4.2292-4.375-4.2656-4.375-9.0781h10.026q0.1459 3.099 2.2605 4.4479 2.151 1.349 4.9583 1.349 6.125 0 6.125-4.1563z"/><path d="m2107 1226.2q-2.9531 0.9844-6.3437 0.9844-5.1771 0-8.2396-2.6979t-3.0625-8.9688v-20.818h-5.7969v-7.6927h5.7969v-9.7344h10.536v9.7344h6.7084v7.6927h-6.7084v19.724q0 2.4792 1.0209 3.2812 1.0208 0.8021 3.026 0.8021 1.6042 0 3.0625-0.2916z"/><path d="m1738.6 1307.8 13.599-38.5h14.328v53.083h-10.974v-14.51l1.0937-24.938-14.292 39.448h-7.5105l-14.292-39.448 1.0937 24.938v14.51h-10.974v-53.083h14.328z"/><path d="m1809 1316q-1.8959 2.698-5.7604 4.9219-3.8646 2.224-9.6251 2.224-9.1875 0-14.364-5.5417-5.1771-5.5781-5.2136-13.453v-1.5313q0-8.9323 4.9583-14.656 4.9948-5.724 13.453-5.724 8.4948 0 12.943 5.3229t4.4479 14.073v4.4844h-25.12q0.5469 3.8281 3.0261 6.1979 2.4791 2.3334 6.526 2.3334 6.0156 0 9.5156-4.4115zm-16.625-25.266q-3.3542 0-5.1771 2.2604t-2.3698 5.9063h14.656v-0.8021q-0.073-3.1719-1.7864-5.25-1.6771-2.1146-5.3229-2.1146z"/><path d="m1840.1 1322.4-0.5105-4.1927q-3.901 4.9219-10.099 4.9219-7.3282 0-11.375-5.6875-4.0469-5.6875-4.0469-14.292v-0.7656q0-9.0052 4.0469-14.583 4.0468-5.5781 11.448-5.5781 5.7604 0 9.4792 4.2656v-20.088h10.573v56zm-15.458-19.25q0 4.7396 1.6771 8.0938 1.6771 3.3177 5.8333 3.3177 4.8125 0 6.8907-4.0834v-15.641q-2.0052-4.0833-6.8177-4.0833-4.1198 0-5.8698 3.3541-1.7136 3.3542-1.7136 9.0417z"/><path d="m1857.8 1272.8q0-2.3698 1.6042-3.901 1.6041-1.5677 4.302-1.5677 2.698 0 4.3021 1.5677 1.6042 1.5312 1.6042 3.901 0 2.3334-1.6042 3.9011-1.6041 1.5312-4.3021 1.5312-2.6979 0-4.302-1.5312-1.6042-1.5677-1.6042-3.9011zm11.229 10.208v39.448h-10.573v-39.448z"/><path d="m1900.5 1322.4q-0.6563-1.3854-1.0573-3.5365-3.8281 4.2657-9.9531 4.2657-5.6511 0-9.5157-3.3177-3.8645-3.3542-3.8645-8.4948 0-6.198 4.5937-9.5886 4.5938-3.4271 13.599-3.4271h4.7031v-2.2968q0-2.7344-1.4219-4.3386-1.3854-1.6406-4.4114-1.6406-5.6511 0-5.6511 4.7396h-10.536q0-5.1407 4.5572-8.8229 4.5573-3.7188 12.214-3.7188 6.8177 0 11.302 3.4635 4.5208 3.4636 4.5208 10.391v17.573q0.073 5.25 1.5677 8.1302v0.6198zm-8.7136-7.3281q2.6615 0 4.5209-1.1667 1.8958-1.2031 2.6979-2.625v-6.8542h-4.3021q-4.1927 0-6.125 1.7865-1.9323 1.75-1.9323 4.3385 0 1.9688 1.349 3.2448 1.3854 1.2761 3.7916 1.2761z"/><path d="m1968.4 1322.4-2.7343-3.1354q-5.9063 3.901-13.526 3.901-8.0208 0-12.688-4.2291-4.6302-4.2292-4.6302-10.828 0-4.6302 2.6615-7.6927 2.6979-3.0989 6.927-6.125-2.3333-3.1354-3.7187-5.9427-1.349-2.8073-1.349-5.7969 0-6.3073 3.9375-10.135 3.974-3.8646 10.573-3.8646 6.1979 0 9.8437 3.7188 3.6823 3.6823 3.6823 8.6771 0 6.5625-7.0729 11.667l-3.4271 2.4427 9.151 10.646q2.1875-4.2292 2.1875-9.3334h8.9688q0 10.427-4.776 16.771l7.9479 9.2604zm-19.615-40.031q0 2.6615 3.2448 6.8907l3.6094-2.3698q2.9896-2.224 2.9896-5.3229 0-1.6407-1.276-3.0625-1.2396-1.4584-3.5365-1.4584-2.4792 0-3.7552 1.5677-1.2761 1.5677-1.2761 3.7552zm-3.427 25.12q0 3.099 2.0052 5.1407 2.0052 2.0416 5.3229 2.0416 3.7552 0 7.1823-2.1145l-10.5-12.141-0.7656 0.5469q-2.0417 1.7865-2.6615 3.4271-0.5833 1.6041-0.5833 3.0989z"/><path d="m2000.1 1322.4 19.76-53.083h10.136l19.87 53.083h-11.667l-3.6458-10.938h-19.214l-3.6458 10.938zm18.193-19.797h13.307l-6.6354-19.943z"/><path d="m2075.5 1311.5q0-1.6771-1.5677-2.8073-1.5313-1.1667-6.6354-2.2604-6.0886-1.3125-9.9896-4.0833-3.9011-2.7709-3.9011-7.8386 0-4.9219 4.1563-8.5677 4.1927-3.6823 11.557-3.6823 7.6927 0 12.104 3.6094 4.4115 3.6094 4.4115 9.1146h-10.536q0-2.2605-1.4583-3.7552-1.4583-1.4948-4.5573-1.4948-2.625 0-4.1198 1.2395-1.4583 1.2032-1.4583 3.0261 0 1.6771 1.5677 2.7708 1.5677 1.0938 5.7969 1.9323 6.4166 1.2761 10.646 3.9011t4.2292 8.4948q0 5.2135-4.4844 8.6406t-12.104 3.4271q-8.276 0-12.651-4.2292-4.375-4.2656-4.375-9.0781h10.026q0.1459 3.0989 2.2604 4.4479 2.1511 1.349 4.9584 1.349 6.125 0 6.125-4.1563z"/><path d="m2114 1311.5q0-1.6771-1.5677-2.8073-1.5313-1.1667-6.6355-2.2604-6.0885-1.3125-9.9895-4.0833-3.9011-2.7709-3.9011-7.8386 0-4.9219 4.1563-8.5677 4.1927-3.6823 11.557-3.6823 7.6927 0 12.104 3.6094 4.4115 3.6094 4.4115 9.1146h-10.536q0-2.2605-1.4583-3.7552-1.4583-1.4948-4.5573-1.4948-2.625 0-4.1198 1.2395-1.4583 1.2032-1.4583 3.0261 0 1.6771 1.5677 2.7708 1.5677 1.0938 5.7969 1.9323 6.4166 1.2761 10.646 3.9011t4.2292 8.4948q0 5.2135-4.4844 8.6406t-12.104 3.4271q-8.276 0-12.651-4.2292-4.375-4.2656-4.375-9.0781h10.026q0.1459 3.0989 2.2604 4.4479 2.1511 1.349 4.9584 1.349 6.125 0 6.125-4.1563z"/><path d="m2164.6 1316q-1.8958 2.698-5.7604 4.9219-3.8646 2.224-9.625 2.224-9.1875 0-14.365-5.5417-5.1771-5.5781-5.2135-13.453v-1.5313q0-8.9323 4.9583-14.656 4.9948-5.724 13.453-5.724 8.4948 0 12.943 5.3229 4.448 5.3229 4.448 14.073v4.4844h-25.12q0.5468 3.8281 3.026 6.1979 2.4792 2.3334 6.526 2.3334 6.0157 0 9.5157-4.4115zm-16.625-25.266q-3.3542 0-5.1771 2.2604t-2.3698 5.9063h14.656v-0.8021q-0.073-3.1719-1.7865-5.25-1.6771-2.1146-5.3229-2.1146z"/><path d="m2191.1 1322.2q-2.9531 0.9844-6.3437 0.9844-5.1771 0-8.2396-2.6979-3.0625-2.698-3.0625-8.9688v-20.818h-5.7969v-7.6927h5.7969v-9.7344h10.536v9.7344h6.7084v7.6927h-6.7084v19.724q0 2.4792 1.0209 3.2813 1.0208 0.8021 3.026 0.8021 1.6042 0 3.0625-0.2917z"/><path d="m1787.7 1418.3v-53.083h34.599v8.8594h-23.625v13.708h21v8.823h-21v21.693z"/><path d="m1827.9 1368.7q0-2.3698 1.6041-3.901 1.6042-1.5678 4.3021-1.5678t4.3021 1.5678q1.6042 1.5312 1.6042 3.901 0 2.3333-1.6042 3.901-1.6042 1.5313-4.3021 1.5313t-4.3021-1.5313q-1.6041-1.5677-1.6041-3.901zm11.229 10.208v39.448h-10.573v-39.448z"/><path d="m1858.9 1362.3v56h-10.573v-56z"/><path d="m1901.1 1411.9q-1.8958 2.6979-5.7604 4.9219-3.8646 2.2239-9.625 2.2239-9.1875 0-14.365-5.5416-5.1771-5.5782-5.2136-13.453v-1.5312q0-8.9323 4.9584-14.656 4.9948-5.7239 13.453-5.7239 8.4948 0 12.943 5.3229t4.4479 14.073v4.4844h-25.12q0.5469 3.8281 3.0261 6.1979 2.4791 2.3333 6.526 2.3333 6.0156 0 9.5156-4.4114zm-16.625-25.266q-3.3542 0-5.1771 2.2604t-2.3698 5.9062h14.656v-0.802q-0.073-3.1719-1.7865-5.25-1.6771-2.1146-5.3229-2.1146z"/><path d="m1929.3 1407.4q0-1.6771-1.5677-2.8073-1.5312-1.1667-6.6354-2.2604-6.0885-1.3125-9.9896-4.0834-3.901-2.7708-3.901-7.8385 0-4.9219 4.1562-8.5677 4.1927-3.6823 11.557-3.6823 7.6927 0 12.104 3.6093 4.4114 3.6094 4.4114 9.1146h-10.536q0-2.2604-1.4583-3.7552-1.4584-1.4948-4.5573-1.4948-2.625 0-4.1198 1.2396-1.4584 1.2031-1.4584 3.0261 0 1.677 1.5677 2.7708 1.5677 1.0937 5.7969 1.9323 6.4167 1.276 10.646 3.901 4.2291 2.625 4.2291 8.4948 0 5.2136-4.4844 8.6407-4.4843 3.427-12.104 3.427-8.2761 0-12.651-4.2291-4.375-4.2657-4.375-9.0782h10.026q0.1458 3.099 2.2604 4.448 2.151 1.3489 4.9583 1.3489 6.125 0 6.125-4.1562z"/><path d="m1979.9 1411.9q-1.8959 2.6979-5.7604 4.9219-3.8646 2.2239-9.625 2.2239-9.1875 0-14.365-5.5416-5.1771-5.5782-5.2136-13.453v-1.5312q0-8.9323 4.9584-14.656 4.9948-5.7239 13.453-5.7239 8.4948 0 12.943 5.3229t4.4479 14.073v4.4844h-25.12q0.5469 3.8281 3.0261 6.1979 2.4791 2.3333 6.526 2.3333 6.0156 0 9.5156-4.4114zm-16.625-25.266q-3.3542 0-5.1771 2.2604t-2.3698 5.9062h14.656v-0.802q-0.073-3.1719-1.7865-5.25-1.6771-2.1146-5.3229-2.1146z"/><path d="m2005.1 1388.4q-5.9427 0-7.802 4.0469v25.849h-10.573v-39.448h9.9532l0.3281 4.7032q3.0989-5.4323 8.7865-5.4323 2.0052 0 3.2447 0.4739l-0.1093 10.099z"/><path d="m2047.7 1378.9-13.307 39.448h-10.026l-13.344-39.448h11.047l7.3281 26.505 7.2917-26.505z"/><path d="m2085.5 1411.9q-1.8959 2.6979-5.7605 4.9219-3.8645 2.2239-9.625 2.2239-9.1875 0-14.365-5.5416-5.177-5.5782-5.2135-13.453v-1.5312q0-8.9323 4.9583-14.656 4.9948-5.7239 13.453-5.7239 8.4948 0 12.943 5.3229t4.4479 14.073v4.4844h-25.12q0.5469 3.8281 3.026 6.1979 2.4792 2.3333 6.5261 2.3333 6.0156 0 9.5156-4.4114zm-16.625-25.266q-3.3542 0-5.1771 2.2604-1.823 2.2604-2.3698 5.9062h14.656v-0.802q-0.073-3.1719-1.7864-5.25-1.6771-2.1146-5.3229-2.1146z"/><path d="m2110.7 1388.4q-5.9427 0-7.8021 4.0469v25.849h-10.573v-39.448h9.9532l0.3281 4.7032q3.0989-5.4323 8.7864-5.4323 2.0052 0 3.2448 0.4739l-0.1093 10.099z"/></g></g><path d="m130.14 162.6v40.288" fill="none" marker-end="url(#TriangleOutM)" marker-start="url(#TriangleInM)" stroke="#000" stroke-linecap="round" stroke-linejoin="round" stroke-width="2.6458"/><path d="m234.16 119.8h594.47v87.163" fill="none" marker-end="url(#DiamondSstart)" marker-start="url(#DiamondS)" stroke="#3c8556" stroke-linecap="round" stroke-linejoin="round" stroke-width="2.6458"/><g transform="matrix(.26458 0 0 .26458 414.37 -264.53)" style="shape-inside:url(#rect185197);white-space:pre" aria-label="references/links to"><path d="m920.48 1369.7q-5.6562 0-7.7188 4.875v24h-5.7812v-33.812h5.625l0.125 3.875q2.7812-4.5 8.0312-4.5 1.625 0 2.5625 0.4375l-0.0312 5.375q-1.2812-0.25-2.8125-0.25z"/><path d="m954.83 1392.7q-1.6562 2.5-4.6875 4.5312-3.0312 2-8.0312 2-7.0625 0-11.312-4.5937-4.2188-4.5938-4.2188-11.75v-1.3125q0-5.5313 2.0938-9.4063 2.125-3.9062 5.5-5.9375 3.375-2.0625 7.1875-2.0625 7.25 0 10.562 4.75 3.3438 4.7188 3.3438 11.812v2.5938h-22.875q0.125 4.6562 2.75 7.9375 2.6562 3.25 7.2812 3.25 3.0625 0 5.1875-1.25t3.7188-3.3438zm-13.469-23.781q-3.4375 0-5.8125 2.5t-2.9688 7.1875h16.906v-0.4375q-0.21875-3.375-1.9688-6.3125-1.7188-2.9375-6.1562-2.9375z"/><path d="m977.83 1369.2h-7.1875v29.375h-5.7812v-29.375h-5.3438v-4.4375h5.3438v-3.7812q0.0625-5.375 3-8.2188 2.9688-2.8437 8.0938-2.8437 1.9062 0 4 0.5l-0.3125 4.7187q-1.3125-0.2812-3.125-0.2812-5.7812 0-5.875 6.1562v3.75h7.1875z"/><path d="m1010.3 1392.7q-1.6562 2.5-4.6875 4.5312-3.0312 2-8.0312 2-7.0625 0-11.312-4.5937-4.2188-4.5938-4.2188-11.75v-1.3125q0-5.5313 2.0938-9.4063 2.125-3.9062 5.5-5.9375 3.375-2.0625 7.1875-2.0625 7.25 0 10.563 4.75 3.3437 4.7188 3.3437 11.812v2.5938h-22.875q0.125 4.6562 2.75 7.9375 2.6562 3.25 7.2812 3.25 3.0625 0 5.1875-1.25t3.7187-3.3438zm-13.469-23.781q-3.4375 0-5.8125 2.5t-2.9688 7.1875h16.906v-0.4375q-0.2188-3.375-1.9688-6.3125-1.7187-2.9375-6.1562-2.9375z"/><path d="m1031 1369.7q-5.6562 0-7.7187 4.875v24h-5.7813v-33.812h5.625l0.125 3.875q2.7813-4.5 8.0313-4.5 1.625 0 2.5625 0.4375l-0.031 5.375q-1.2812-0.25-2.8125-0.25z"/><path d="m1065.3 1392.7q-1.6563 2.5-4.6875 4.5312-3.0313 2-8.0313 2-7.0625 0-11.312-4.5937-4.2187-4.5938-4.2187-11.75v-1.3125q0-5.5313 2.0937-9.4063 2.125-3.9062 5.5-5.9375 3.375-2.0625 7.1875-2.0625 7.25 0 10.562 4.75 3.3438 4.7188 3.3438 11.812v2.5938h-22.875q0.125 4.6562 2.75 7.9375 2.6562 3.25 7.2812 3.25 3.0625 0 5.1875-1.25t3.7188-3.3438zm-13.469-23.781q-3.4375 0-5.8125 2.5t-2.9687 7.1875h16.906v-0.4375q-0.2187-3.375-1.9687-6.3125-1.7188-2.9375-6.1563-2.9375z"/><path d="m1086.5 1369q-2.7812 0-4.9062 1.5t-3.3438 3.9063v24.156h-5.7812v-33.812h5.4687l0.1875 4.2188q3.8438-4.8438 10.094-4.8438 4.9687 0 7.875 2.7813 2.9375 2.7812 2.9687 9.3437v22.312h-5.8125v-22.219q0-3.9688-1.75-5.6563-1.7187-1.6875-5-1.6875z"/><path d="m1121.4 1394.5q3.0937 0 5.4062-1.8437 2.3438-1.8438 2.5625-4.7188h5.5q-0.2187 4.5313-4.1562 7.9375-3.9375 3.375-9.3125 3.375-7.625 0-11.344-5.0312-3.6875-5.0313-3.6875-11.844v-1.3125q0-6.8125 3.6875-11.844 3.7188-5.0313 11.344-5.0313 5.9375 0 9.5937 3.5313 3.6563 3.5 3.875 8.7187h-5.5q-0.2187-3.125-2.375-5.3125-2.125-2.1875-5.5937-2.1875-3.5625 0-5.5938 1.8125-2 1.8125-2.8437 4.5938-0.8125 2.7812-0.8125 5.7187v1.3125q0 2.9688 0.8125 5.75 0.8125 2.7813 2.8125 4.5938 2.0312 1.7812 5.625 1.7812z"/><path d="m1168.1 1392.7q-1.6562 2.5-4.6875 4.5312-3.0312 2-8.0312 2-7.0625 0-11.312-4.5937-4.2188-4.5938-4.2188-11.75v-1.3125q0-5.5313 2.0938-9.4063 2.125-3.9062 5.5-5.9375 3.375-2.0625 7.1875-2.0625 7.25 0 10.562 4.75 3.3437 4.7188 3.3437 11.812v2.5938h-22.875q0.125 4.6562 2.75 7.9375 2.6563 3.25 7.2813 3.25 3.0625 0 5.1875-1.25t3.7187-3.3438zm-13.469-23.781q-3.4375 0-5.8125 2.5t-2.9688 7.1875h16.906v-0.4375q-0.2188-3.375-1.9688-6.3125-1.7187-2.9375-6.1562-2.9375z"/><path d="m1195 1389.6q0-1.8438-1.375-3.3125-1.3437-1.5-6.25-2.5-5.6562-1.1563-9-3.3438-3.3437-2.2187-3.3437-6.4375 0-4 3.4062-6.9375 3.4375-2.9375 9.125-2.9375 6.0625 0 9.4688 3.0938 3.4062 3.0937 3.4062 7.4687h-5.7812q0-2.0937-1.8438-3.9375-1.8437-1.875-5.25-1.875-3.5937 0-5.1562 1.5625t-1.5625 3.4063q0 1.8437 1.4375 3 1.4687 1.125 6.1875 2.1875 6.2187 1.4062 9.25 3.6875 3.0625 2.2812 3.0625 6.4375 0 4.4687-3.5938 7.25-3.5625 2.7812-9.4687 2.7812-6.7188 0-10.281-3.4375t-3.5625-7.625h5.8125q0.1875 3.5938 2.75 4.9688 2.5938 1.3437 5.2813 1.3437 3.5312 0 5.4062-1.375t1.875-3.4687z"/><path d="m1228.4 1353.1-18.969 49.406h-4.9687l19-49.406z"/><path d="m1241 1350.6v48h-5.8125v-48z"/><path d="m1250.3 1355.8q0-1.4063 0.8437-2.375 0.875-0.9688 2.5625-0.9688 1.6563 0 2.5313 0.9688 0.9062 0.9687 0.9062 2.375 0 1.3437-0.9062 2.3125-0.875 0.9375-2.5313 0.9375-1.6875 0-2.5625-0.9375-0.8437-0.9688-0.8437-2.3125zm6.25 8.9687v33.812h-5.8125v-33.812z"/><path d="m1279.9 1369q-2.7813 0-4.9063 1.5t-3.3437 3.9063v24.156h-5.7813v-33.812h5.4688l0.1875 4.2188q3.8437-4.8438 10.094-4.8438 4.9688 0 7.875 2.7813 2.9375 2.7812 2.9688 9.3437v22.312h-5.8125v-22.219q0-3.9688-1.75-5.6563-1.7188-1.6875-5-1.6875z"/><path d="m1322.4 1398.6-11.719-15.688-3.6562 3.7813v11.906h-5.8125v-48h5.8125v29l3.0937-3.6875 10.5-11.125h7.0625l-13.188 14.094 14.719 19.719z"/><path d="m1353.3 1389.6q0-1.8438-1.375-3.3125-1.3438-1.5-6.25-2.5-5.6563-1.1563-9-3.3438-3.3438-2.2187-3.3438-6.4375 0-4 3.4063-6.9375 3.4375-2.9375 9.125-2.9375 6.0625 0 9.4687 3.0938 3.4063 3.0937 3.4063 7.4687h-5.7813q0-2.0937-1.8437-3.9375-1.8438-1.875-5.25-1.875-3.5938 0-5.1563 1.5625t-1.5625 3.4063q0 1.8437 1.4375 3 1.4688 1.125 6.1875 2.1875 6.2188 1.4062 9.25 3.6875 3.0625 2.2812 3.0625 6.4375 0 4.4687-3.5937 7.25-3.5625 2.7812-9.4688 2.7812-6.7187 0-10.281-3.4375t-3.5625-7.625h5.8125q0.1875 3.5938 2.75 4.9688 2.5937 1.3437 5.2812 1.3437 3.5313 0 5.4063-1.375t1.875-3.4687z"/><path d="m1396.8 1398.6q-1.9687 0.625-4.4687 0.625-3.2188 0-5.5-1.9687-2.2813-1.9688-2.2813-7.0625v-20.969h-6.1875v-4.4375h6.1875v-8.2187h5.7813v8.2187h6.3125v4.4375h-6.3125v21q0 2.5938 1.125 3.3125 1.125 0.7188 2.5937 0.7188 1.0938 0 2.7188-0.375z"/><path d="m1401.3 1381.3q0-7.3437 4.125-12.25 4.125-4.9375 11.219-4.9375 7.0938 0 11.219 4.8438 4.125 4.8125 4.2187 12.031v1.0313q0 7.3437-4.1562 12.25-4.125 4.9062-11.219 4.9062-7.125 0-11.281-4.9062-4.125-4.9063-4.125-12.25zm5.7812 0.7188q0 5.0312 2.375 8.7187 2.4063 3.6875 7.25 3.6875 4.7188 0 7.125-3.625 2.4063-3.6562 2.4375-8.6875v-0.8125q0-4.9687-2.4062-8.6875-2.4063-3.75-7.2188-3.75-4.7812 0-7.1875 3.75-2.375 3.7188-2.375 8.6875z"/></g><g transform="matrix(.26458 0 0 .26458 28.414 68.782)" style="shape-inside:url(#rect209580);white-space:pre" aria-label="Tech stack: Rust, Hyper, Juniper"><path d="m1573.4 943.48 0.875-4.9375h34.125l-0.875 4.9375h-14.156l-7.0313 40.562h-5.8125l7.0313-40.562z"/><path d="m1630.3 978.16q-2.2188 3.25-5.625 4.9062-3.4063 1.6562-7.3125 1.5938-6.9063-0.125-10.156-5t-2.75-11.25l0.1875-1.6562q0.5-4.3125 2.625-8.2812t5.6563-6.4688q3.5312-2.5312 8.2812-2.4062 4.6563 0.0937 7.2813 2.5312 2.6562 2.4375 3.5625 6.1875 0.9375 3.75 0.4687 7.8438l-0.3437 2.5938h-22.062q-0.4375 4 1.3437 7.5312 1.7813 3.5312 6.375 3.6562 2.8438 0.0625 5.0938-1.2188 2.2812-1.3125 4.1562-3.3125zm-9.375-23.844q-4.2813-0.15625-6.6875 3-2.4063 3.1562-3.5313 6.7188l16.406 0.0312 0.094-0.5q0.4688-3.375-1.0312-6.25t-5.25-3z"/><path d="m1650.1 979.95q3.0938 0.0625 5.4688-1.75 2.4062-1.8438 3.1875-4.8125l5.375-0.0312q-0.7188 5.0938-5 8.25-4.2813 3.1562-9.2813 3.0625-4.75-0.0625-7.625-2.5-2.8437-2.4375-4-6.25-1.125-3.8125-0.7187-8.0312l0.125-1.3438q0.5-4.5312 2.5937-8.4375 2.125-3.9062 5.6875-6.25 3.5625-2.375 8.4688-2.25 5.3437 0.125 8.5 3.5938 3.1875 3.4375 3.1875 8.6875l-5.3125-0.0312q-0.062-3.0312-1.7188-5.2188-1.6562-2.1875-4.9062-2.3125-4.4688-0.125-7.375 3.2812-2.875 3.375-3.625 9.6562l-0.062 0.59375q-0.25 2.75 0.1562 5.5312 0.4063 2.75 2 4.625 1.5938 1.8438 4.875 1.9375z"/><path d="m1687.3 954.45q-2.9062-0.0625-5.125 1.5625-2.2187 1.5938-3.8125 3.8438l-4.1875 24.188h-5.6562l8.3437-48h5.6563l-3.4375 18.25q4.4375-4.7812 10.188-4.6562 5.4375 0.0937 7.3437 3.7188 1.9375 3.625 1.4375 8.5312l-3.6875 22.156h-5.6875l3.75-22.25q0.3438-3.0312-0.7187-5.125-1.0313-2.125-4.4063-2.2188z"/><path d="m1739.3 974.88q0.4063-2.875-1.8437-3.9688-2.2188-1.125-4.625-1.7188-2.375-0.59375-4.6875-1.5625-2.6563-1.0938-4.3125-2.9688-1.625-1.875-1.4688-4.9688 0.1563-3.3438 2.1875-5.5938 2.0313-2.2812 5-3.4062 3-1.1562 6-1.0938 4.75 0.0937 8.125 2.8438 3.4063 2.7188 3.25 7.75l-5.5937-0.0312q0.062-2.6562-1.6875-4.1875-1.7188-1.5625-4.3125-1.5938-2.4688-0.0312-4.7188 1.2188-2.25 1.2188-2.625 3.9375-0.2187 1.7812 0.8438 2.75 1.0625 0.9375 2.6875 1.4375l2.4062 0.6875q3.3438 0.90625 5.8438 2.0938 2.5312 1.1875 3.9062 3.0938 1.4063 1.875 1.25 4.8125-0.1875 3.5625-2.2812 5.8438-2.0938 2.2812-5.1875 3.375-3.0938 1.0938-6.2813 1.0312-4.9375-0.0937-8.6562-2.9375-3.7188-2.8438-3.5625-8.1562l5.6562 0.0312q0 3.0625 1.875 4.6562 1.9063 1.5938 4.875 1.625 2.5 0.0312 5-1.0625 2.5313-1.125 2.9375-3.9375z"/><path d="m1764.6 984.04q-1.6875 0.59375-4.125 0.59375-3.9062-0.0625-5.3125-2.8125-1.375-2.75-1.0625-6.1875l3.4375-20.969h-6l0.7813-4.4375h6l1.4375-8.2188h5.6562l-1.4687 8.2188h6.1562l-0.7812 4.4375h-6.125l-3.5313 21.062q-0.1875 1.625 0.3125 2.75t2.3125 1.1562q0.4375 0 2.7188-0.3125z"/><path d="m1791.3 984.04q-0.1875-0.90625-0.1875-1.7812l0.062-1.7812q-4.6562 4.3125-9.9062 4.1875-4.1875-0.0625-7.125-2.7188t-2.6875-7.0625q0.25-4.2812 2.75-6.75 2.5-2.5 6.1562-3.5625 3.6875-1.0625 7.375-1.0625l5.875 0.0312 0.4063-2.7188q0.3125-2.9375-1.1563-4.7188-1.4375-1.8125-4.4687-1.875-2.625-0.0312-4.9688 1.3125-2.3437 1.3438-2.9375 4.0312l-5.6562 0.0312q0.3437-3.375 2.5625-5.625 2.25-2.25 5.375-3.3438 3.1562-1.0938 6.1875-1.0625 5.0937 0.0937 8.125 3.125 3.0625 3 2.5312 8.2188l-2.7187 16.562-0.1875 2.625q-0.062 1.75 0.4062 3.4062l-0.062 0.53125zm-8.875-4.4062q2.8438 0.0625 5.25-1.3438 2.4375-1.4375 4.0313-3.7188l1.25-6.9688-4.2813-0.0312q-6.0312 0-9.1875 2.375-1.875 1.4062-2.2187 4.1562-0.3125 2.5312 1.1562 4.0312 1.5 1.4688 4 1.5z"/><path d="m1818.6 979.95q3.0937 0.0625 5.4687-1.75 2.4063-1.8438 3.1875-4.8125l5.375-0.0312q-0.7187 5.0938-5 8.25-4.2812 3.1562-9.2812 3.0625-4.75-0.0625-7.625-2.5-2.8438-2.4375-4-6.25-1.125-3.8125-0.7188-8.0312l0.125-1.3438q0.5-4.5312 2.5938-8.4375 2.125-3.9062 5.6875-6.25 3.5625-2.375 8.4687-2.25 5.3438 0.125 8.5 3.5938 3.1875 3.4375 3.1875 8.6875l-5.3125-0.0312q-0.062-3.0312-1.7187-5.2188-1.6563-2.1875-4.9063-2.3125-4.4687-0.125-7.375 3.2812-2.875 3.375-3.625 9.6562l-0.062 0.59375q-0.25 2.75 0.1563 5.5312 0.4062 2.75 2 4.625 1.5937 1.8438 4.875 1.9375z"/><path d="m1857.8 984.04-8.625-15.625-4.4375 3.9688-2.0313 11.656h-5.6875l8.3438-48h5.6875l-5 28.656 3.4062-3.4375 12.031-11.031 7.3437 0.0312-15.531 14.344 10.719 19.438z"/><path d="m1871.6 980.98q0-1.4688 0.9063-2.4688 0.9375-1.0312 2.6875-1.0312t2.6562 1.0312q0.9375 1 0.9375 2.4688 0 1.4375-0.9375 2.4375-0.9062 1-2.6562 1t-2.6875-1q-0.9063-1-0.9063-2.4375zm0.031-27.594q0-1.4688 0.9062-2.4688 0.9375-1.0312 2.6875-1.0312t2.6563 1.0312q0.9375 1 0.9375 2.4688 0 1.4375-0.9375 2.4375-0.9063 1-2.6563 1t-2.6875-1q-0.9062-1-0.9062-2.4375z"/><path d="m1930.7 984.04-9.875-18.438h-10.688v18.438h-6.0313v-45.5h15.062q7.6563 0 11.781 3.5 4.1562 3.5 4.1562 10.156 0 4.25-2.3125 7.4375-2.2812 3.1562-6.3437 4.7188l10.688 19.312v0.375zm-20.562-40.562v17.219h9.2187q4.8438 0 7.2813-2.4688 2.4687-2.5 2.4687-6.0312 0-3.9375-2.375-6.3125-2.3437-2.4062-7.5625-2.4062z"/><path d="m1963.7 984.04-0.125-3.3438q-3.3125 3.9688-9.875 3.9688-4.9688 0-8.0313-2.9375t-3.0625-9.6875v-21.812h5.7813v21.875q0 4.5625 1.9062 6.125 1.9375 1.5312 4.3125 1.5312 6.5313 0 8.8125-4.9062v-24.625h5.8125v33.812z"/><path d="m1997.7 975.07q0-1.8438-1.375-3.3125-1.3438-1.5-6.25-2.5-5.6563-1.1562-9-3.3438-3.3438-2.2188-3.3438-6.4375 0-4 3.4063-6.9375 3.4375-2.9375 9.125-2.9375 6.0625 0 9.4687 3.0938 3.4063 3.0938 3.4063 7.4688h-5.7813q0-2.0938-1.8437-3.9375-1.8438-1.875-5.25-1.875-3.5938 0-5.1563 1.5625t-1.5625 3.4062 1.4375 3q1.4688 1.125 6.1875 2.1875 6.2188 1.4062 9.25 3.6875 3.0625 2.2812 3.0625 6.4375 0 4.4688-3.5937 7.25-3.5625 2.7812-9.4688 2.7812-6.7187 0-10.281-3.4375t-3.5625-7.625h5.8125q0.1875 3.5938 2.75 4.9688 2.5937 1.3438 5.2812 1.3438 3.5313 0 5.4063-1.375t1.875-3.4688z"/><path d="m2025.3 984.04q-1.9687 0.625-4.4687 0.625-3.2188 0-5.5-1.9688-2.2813-1.9688-2.2813-7.0625v-20.969h-6.1875v-4.4375h6.1875v-8.2188h5.7813v8.2188h6.3125v4.4375h-6.3125v21q0 2.5938 1.125 3.3125t2.5937 0.71875q1.0938 0 2.7188-0.375z"/><path d="m2037.2 977.16v4.6562q0 2.8438-1.4375 6-1.4375 3.1875-4.0312 5.3125l-3.2813-2.2812q3-4.1875 3.0938-8.5625v-5.125z"/><path d="m1602.4 1066.3v-21.031h-22.938v21.031h-6.0312v-45.5h6.0312v19.562h22.938v-19.562h6v45.5z"/><path d="m1629.7 1071.5q-3 7.9375-9.0625 8.4063l-0.9688 0.031q-1.8437 0-3.25-0.5l-0.031-4.6875 1.5625 0.125q2.9375 0 4.5937-1.2187 1.6563-1.1875 2.7188-4.3125l1.25-3.4375-12.062-33.438h6.3125l8.4687 25.312 7.8438-25.312h6.1875z"/><path d="m1663.9 1066.9q-6.0938 0-9.6563-3.9063v16.281h-5.8125v-46.812h5.3125l0.2813 3.7187q3.5625-4.3437 9.7812-4.3437 6.4063 0 9.8125 4.75 3.4063 4.75 3.4063 12.5v0.6562q0 7.4063-3.4375 12.281-3.4063 4.875-9.6875 4.875zm-1.7813-30.188q-5.25 0-7.875 4.6562v16.188q2.6563 4.5938 7.9375 4.5938 4.6875 0 6.8438-3.6875 2.1875-3.6875 2.1875-8.7188v-0.6562q0-5.0313-2.1875-8.6875-2.1563-3.6875-6.9063-3.6875z"/><path d="m1711.2 1060.4q-1.6563 2.5-4.6875 4.5313-3.0313 2-8.0313 2-7.0625 0-11.312-4.5938-4.2187-4.5937-4.2187-11.75v-1.3125q0-5.5312 2.0937-9.4062 2.125-3.9063 5.5-5.9375 3.375-2.0625 7.1875-2.0625 7.25 0 10.562 4.75 3.3438 4.7187 3.3438 11.812v2.5937h-22.875q0.125 4.6563 2.75 7.9375 2.6562 3.25 7.2812 3.25 3.0625 0 5.1875-1.25t3.7188-3.3437zm-13.469-23.781q-3.4375 0-5.8125 2.5t-2.9687 7.1875h16.906v-0.4375q-0.2187-3.375-1.9687-6.3125-1.7188-2.9375-6.1563-2.9375z"/><path d="m1731.9 1037.4q-5.6563 0-7.7188 4.875v24h-5.7812v-33.812h5.625l0.125 3.875q2.7812-4.5 8.0312-4.5 1.625 0 2.5625 0.4375l-0.031 5.375q-1.2813-0.25-2.8125-0.25z"/><path d="m1741.4 1059.4v4.6562q0 2.8438-1.4375 6-1.4375 3.1875-4.0312 5.3125l-3.2813-2.2812q3-4.1875 3.0938-8.5625v-5.125z"/><path d="m1784.6 1020.8h6v32.219q0 6.75-4.0625 10.344-4.0312 3.5625-10.281 3.5625-6.2813 0-10.344-3.25-4.0312-3.25-4.0312-9.9688h6.0312q0 4.3125 2.3125 6.3125 2.3438 2 6.0313 2 3.5625 0 5.9375-2.2812 2.4062-2.2813 2.4062-6.7188z"/><path d="m1820.9 1066.3-0.125-3.3438q-3.3125 3.9688-9.875 3.9688-4.9687 0-8.0312-2.9375t-3.0625-9.6875v-21.812h5.7812v21.875q0 4.5625 1.9063 6.125 1.9375 1.5312 4.3125 1.5312 6.5312 0 8.8125-4.9062v-24.625h5.8125v33.812z"/><path d="m1849.3 1036.7q-2.7813 0-4.9063 1.5t-3.3437 3.9062v24.156h-5.7813v-33.812h5.4688l0.1875 4.2187q3.8437-4.8437 10.094-4.8437 4.9688 0 7.875 2.7812 2.9375 2.7813 2.9688 9.3438v22.312h-5.8125v-22.219q0-3.9687-1.75-5.6562-1.7188-1.6875-5-1.6875z"/><path d="m1870.6 1023.5q0-1.4062 0.8438-2.375 0.875-0.9687 2.5625-0.9687 1.6562 0 2.5312 0.9687 0.9063 0.9688 0.9063 2.375 0 1.3438-0.9063 2.3125-0.875 0.9375-2.5312 0.9375-1.6875 0-2.5625-0.9375-0.8438-0.9687-0.8438-2.3125zm6.25 8.9688v33.812h-5.8125v-33.812z"/><path d="m1901.6 1066.9q-6.0938 0-9.6563-3.9063v16.281h-5.8125v-46.812h5.3125l0.2813 3.7187q3.5625-4.3437 9.7812-4.3437 6.4063 0 9.8125 4.75 3.4063 4.75 3.4063 12.5v0.6562q0 7.4063-3.4375 12.281-3.4063 4.875-9.6875 4.875zm-1.7813-30.188q-5.25 0-7.875 4.6562v16.188q2.6563 4.5938 7.9375 4.5938 4.6875 0 6.8438-3.6875 2.1875-3.6875 2.1875-8.7188v-0.6562q0-5.0313-2.1875-8.6875-2.1563-3.6875-6.9063-3.6875z"/><path d="m1948.9 1060.4q-1.6563 2.5-4.6875 4.5313-3.0313 2-8.0313 2-7.0625 0-11.312-4.5938-4.2187-4.5937-4.2187-11.75v-1.3125q0-5.5312 2.0937-9.4062 2.125-3.9063 5.5-5.9375 3.375-2.0625 7.1875-2.0625 7.25 0 10.562 4.75 3.3438 4.7187 3.3438 11.812v2.5937h-22.875q0.125 4.6563 2.75 7.9375 2.6562 3.25 7.2812 3.25 3.0625 0 5.1875-1.25t3.7188-3.3437zm-13.469-23.781q-3.4375 0-5.8125 2.5t-2.9687 7.1875h16.906v-0.4375q-0.2187-3.375-1.9687-6.3125-1.7188-2.9375-6.1563-2.9375z"/><path d="m1969.5 1037.4q-5.6563 0-7.7188 4.875v24h-5.7812v-33.812h5.625l0.125 3.875q2.7812-4.5 8.0312-4.5 1.625 0 2.5625 0.4375l-0.031 5.375q-1.2813-0.25-2.8125-0.25z"/></g><g transform="matrix(.26458 0 0 .26458 406.41 51.637)" style="shape-inside:url(#rect302341);white-space:pre" aria-label="Tech stack: TypeScript, React, Relay"><path d="m1573.4 943.48 0.875-4.9375h34.125l-0.875 4.9375h-14.156l-7.0313 40.562h-5.8125l7.0313-40.562z"/><path d="m1630.3 978.16q-2.2188 3.25-5.625 4.9062-3.4063 1.6562-7.3125 1.5938-6.9063-0.125-10.156-5t-2.75-11.25l0.1875-1.6562q0.5-4.3125 2.625-8.2812t5.6563-6.4688q3.5312-2.5312 8.2812-2.4062 4.6563 0.0937 7.2813 2.5312 2.6562 2.4375 3.5625 6.1875 0.9375 3.75 0.4687 7.8438l-0.3437 2.5938h-22.062q-0.4375 4 1.3437 7.5312 1.7813 3.5312 6.375 3.6562 2.8438 0.0625 5.0938-1.2188 2.2812-1.3125 4.1562-3.3125zm-9.375-23.844q-4.2813-0.15625-6.6875 3-2.4063 3.1562-3.5313 6.7188l16.406 0.0312 0.094-0.5q0.4688-3.375-1.0312-6.25t-5.25-3z"/><path d="m1650.1 979.95q3.0938 0.0625 5.4688-1.75 2.4062-1.8438 3.1875-4.8125l5.375-0.0312q-0.7188 5.0938-5 8.25-4.2813 3.1562-9.2813 3.0625-4.75-0.0625-7.625-2.5-2.8437-2.4375-4-6.25-1.125-3.8125-0.7187-8.0312l0.125-1.3438q0.5-4.5312 2.5937-8.4375 2.125-3.9062 5.6875-6.25 3.5625-2.375 8.4688-2.25 5.3437 0.125 8.5 3.5938 3.1875 3.4375 3.1875 8.6875l-5.3125-0.0312q-0.062-3.0312-1.7188-5.2188-1.6562-2.1875-4.9062-2.3125-4.4688-0.125-7.375 3.2812-2.875 3.375-3.625 9.6562l-0.062 0.59375q-0.25 2.75 0.1562 5.5312 0.4063 2.75 2 4.625 1.5938 1.8438 4.875 1.9375z"/><path d="m1687.3 954.45q-2.9062-0.0625-5.125 1.5625-2.2187 1.5938-3.8125 3.8438l-4.1875 24.188h-5.6562l8.3437-48h5.6563l-3.4375 18.25q4.4375-4.7812 10.188-4.6562 5.4375 0.0937 7.3437 3.7188 1.9375 3.625 1.4375 8.5312l-3.6875 22.156h-5.6875l3.75-22.25q0.3438-3.0312-0.7187-5.125-1.0313-2.125-4.4063-2.2188z"/><path d="m1739.3 974.88q0.4063-2.875-1.8437-3.9688-2.2188-1.125-4.625-1.7188-2.375-0.59375-4.6875-1.5625-2.6563-1.0938-4.3125-2.9688-1.625-1.875-1.4688-4.9688 0.1563-3.3438 2.1875-5.5938 2.0313-2.2812 5-3.4062 3-1.1562 6-1.0938 4.75 0.0937 8.125 2.8438 3.4063 2.7188 3.25 7.75l-5.5937-0.0312q0.062-2.6562-1.6875-4.1875-1.7188-1.5625-4.3125-1.5938-2.4688-0.0312-4.7188 1.2188-2.25 1.2188-2.625 3.9375-0.2187 1.7812 0.8438 2.75 1.0625 0.9375 2.6875 1.4375l2.4062 0.6875q3.3438 0.90625 5.8438 2.0938 2.5312 1.1875 3.9062 3.0938 1.4063 1.875 1.25 4.8125-0.1875 3.5625-2.2812 5.8438-2.0938 2.2812-5.1875 3.375-3.0938 1.0938-6.2813 1.0312-4.9375-0.0937-8.6562-2.9375-3.7188-2.8438-3.5625-8.1562l5.6562 0.0312q0 3.0625 1.875 4.6562 1.9063 1.5938 4.875 1.625 2.5 0.0312 5-1.0625 2.5313-1.125 2.9375-3.9375z"/><path d="m1764.6 984.04q-1.6875 0.59375-4.125 0.59375-3.9062-0.0625-5.3125-2.8125-1.375-2.75-1.0625-6.1875l3.4375-20.969h-6l0.7813-4.4375h6l1.4375-8.2188h5.6562l-1.4687 8.2188h6.1562l-0.7812 4.4375h-6.125l-3.5313 21.062q-0.1875 1.625 0.3125 2.75t2.3125 1.1562q0.4375 0 2.7188-0.3125z"/><path d="m1791.3 984.04q-0.1875-0.90625-0.1875-1.7812l0.062-1.7812q-4.6562 4.3125-9.9062 4.1875-4.1875-0.0625-7.125-2.7188t-2.6875-7.0625q0.25-4.2812 2.75-6.75 2.5-2.5 6.1562-3.5625 3.6875-1.0625 7.375-1.0625l5.875 0.0312 0.4063-2.7188q0.3125-2.9375-1.1563-4.7188-1.4375-1.8125-4.4687-1.875-2.625-0.0312-4.9688 1.3125-2.3437 1.3438-2.9375 4.0312l-5.6562 0.0312q0.3437-3.375 2.5625-5.625 2.25-2.25 5.375-3.3438 3.1562-1.0938 6.1875-1.0625 5.0937 0.0937 8.125 3.125 3.0625 3 2.5312 8.2188l-2.7187 16.562-0.1875 2.625q-0.062 1.75 0.4062 3.4062l-0.062 0.53125zm-8.875-4.4062q2.8438 0.0625 5.25-1.3438 2.4375-1.4375 4.0313-3.7188l1.25-6.9688-4.2813-0.0312q-6.0312 0-9.1875 2.375-1.875 1.4062-2.2187 4.1562-0.3125 2.5312 1.1562 4.0312 1.5 1.4688 4 1.5z"/><path d="m1818.6 979.95q3.0937 0.0625 5.4687-1.75 2.4063-1.8438 3.1875-4.8125l5.375-0.0312q-0.7187 5.0938-5 8.25-4.2812 3.1562-9.2812 3.0625-4.75-0.0625-7.625-2.5-2.8438-2.4375-4-6.25-1.125-3.8125-0.7188-8.0312l0.125-1.3438q0.5-4.5312 2.5938-8.4375 2.125-3.9062 5.6875-6.25 3.5625-2.375 8.4687-2.25 5.3438 0.125 8.5 3.5938 3.1875 3.4375 3.1875 8.6875l-5.3125-0.0312q-0.062-3.0312-1.7187-5.2188-1.6563-2.1875-4.9063-2.3125-4.4687-0.125-7.375 3.2812-2.875 3.375-3.625 9.6562l-0.062 0.59375q-0.25 2.75 0.1563 5.5312 0.4062 2.75 2 4.625 1.5937 1.8438 4.875 1.9375z"/><path d="m1857.8 984.04-8.625-15.625-4.4375 3.9688-2.0313 11.656h-5.6875l8.3438-48h5.6875l-5 28.656 3.4062-3.4375 12.031-11.031 7.3437 0.0312-15.531 14.344 10.719 19.438z"/><path d="m1871.6 980.98q0-1.4688 0.9063-2.4688 0.9375-1.0312 2.6875-1.0312t2.6562 1.0312q0.9375 1 0.9375 2.4688 0 1.4375-0.9375 2.4375-0.9062 1-2.6562 1t-2.6875-1q-0.9063-1-0.9063-2.4375zm0.031-27.594q0-1.4688 0.9062-2.4688 0.9375-1.0312 2.6875-1.0312t2.6563 1.0312q0.9375 1 0.9375 2.4688 0 1.4375-0.9375 2.4375-0.9063 1-2.6563 1t-2.6875-1q-0.9062-1-0.9062-2.4375z"/><path d="m1569.7 1025.7v-4.9375h35.156v4.9375h-14.625v40.562h-5.9375v-40.562z"/><path d="m1620 1071.5q-3 7.9375-9.0625 8.4063l-0.9687 0.031q-1.8438 0-3.25-0.5l-0.031-4.6875 1.5625 0.125q2.9375 0 4.5938-1.2187 1.6562-1.1875 2.7187-4.3125l1.25-3.4375-12.062-33.438h6.3125l8.4688 25.312 7.8437-25.312h6.1875z"/><path d="m1654.2 1066.9q-6.0937 0-9.6562-3.9063v16.281h-5.8125v-46.812h5.3125l0.2812 3.7187q3.5625-4.3437 9.7813-4.3437 6.4062 0 9.8125 4.75 3.4062 4.75 3.4062 12.5v0.6562q0 7.4063-3.4375 12.281-3.4062 4.875-9.6875 4.875zm-1.7812-30.188q-5.25 0-7.875 4.6562v16.188q2.6562 4.5938 7.9375 4.5938 4.6875 0 6.8437-3.6875 2.1875-3.6875 2.1875-8.7188v-0.6562q0-5.0313-2.1875-8.6875-2.1562-3.6875-6.9062-3.6875z"/><path d="m1701.4 1060.4q-1.6562 2.5-4.6875 4.5313-3.0312 2-8.0312 2-7.0625 0-11.312-4.5938-4.2188-4.5937-4.2188-11.75v-1.3125q0-5.5312 2.0938-9.4062 2.125-3.9063 5.5-5.9375 3.375-2.0625 7.1875-2.0625 7.25 0 10.562 4.75 3.3437 4.7187 3.3437 11.812v2.5937h-22.875q0.125 4.6563 2.75 7.9375 2.6563 3.25 7.2813 3.25 3.0625 0 5.1875-1.25t3.7187-3.3437zm-13.469-23.781q-3.4375 0-5.8125 2.5t-2.9688 7.1875h16.906v-0.4375q-0.2188-3.375-1.9688-6.3125-1.7187-2.9375-6.1562-2.9375z"/><path d="m1733.8 1054.8q0-3.125-2.125-5-2.0937-1.875-8.8437-3.8438-6.75-2-10.688-5.0625-3.9063-3.0937-3.9063-8.3437 0-5.3125 4.2188-8.8438 4.25-3.5312 11.25-3.5312 7.6875 0 11.844 4.2187 4.1875 4.2188 4.1875 9.5313h-6q0-3.8125-2.4687-6.3125-2.4688-2.5-7.5625-2.5-4.8125 0-7.125 2.125-2.3125 2.0937-2.3125 5.25 0 2.8437 2.4375 4.75 2.4687 1.875 8 3.4375 7.9062 2.2187 11.531 5.5 3.625 3.25 3.625 8.5625 0 5.5625-4.3437 8.875-4.3438 3.3125-11.531 3.3125-4.1875 0-8.1562-1.5625-3.9375-1.5625-6.5-4.625-2.5313-3.0938-2.5313-7.625h6q0 4.6562 3.4063 6.7812 3.4062 2.125 7.7812 2.125 4.7188 0 7.25-1.9375 2.5625-1.9687 2.5625-5.2812z"/><path d="m1760.2 1062.1q3.0937 0 5.4062-1.8438 2.3438-1.8437 2.5625-4.7187h5.5q-0.2187 4.5312-4.1562 7.9375-3.9375 3.375-9.3125 3.375-7.625 0-11.344-5.0313-3.6875-5.0312-3.6875-11.844v-1.3125q0-6.8125 3.6875-11.844 3.7188-5.0312 11.344-5.0312 5.9375 0 9.5937 3.5312 3.6563 3.5 3.875 8.7188h-5.5q-0.2187-3.125-2.375-5.3125-2.125-2.1875-5.5937-2.1875-3.5625 0-5.5938 1.8125-2 1.8125-2.8437 4.5937-0.8125 2.7813-0.8125 5.7188v1.3125q0 2.9687 0.8125 5.75 0.8125 2.7812 2.8125 4.5937 2.0312 1.7813 5.625 1.7813z"/><path d="m1793.6 1037.4q-5.6562 0-7.7187 4.875v24h-5.7813v-33.812h5.625l0.125 3.875q2.7813-4.5 8.0313-4.5 1.625 0 2.5625 0.4375l-0.031 5.375q-1.2812-0.25-2.8125-0.25z"/><path d="m1801.9 1023.5q0-1.4062 0.8437-2.375 0.875-0.9687 2.5625-0.9687 1.6563 0 2.5313 0.9687 0.9062 0.9688 0.9062 2.375 0 1.3438-0.9062 2.3125-0.875 0.9375-2.5313 0.9375-1.6875 0-2.5625-0.9375-0.8437-0.9687-0.8437-2.3125zm6.25 8.9688v33.812h-5.8125v-33.812z"/><path d="m1832.8 1066.9q-6.0937 0-9.6562-3.9063v16.281h-5.8125v-46.812h5.3125l0.2812 3.7187q3.5625-4.3437 9.7813-4.3437 6.4062 0 9.8125 4.75 3.4062 4.75 3.4062 12.5v0.6562q0 7.4063-3.4375 12.281-3.4062 4.875-9.6875 4.875zm-1.7812-30.188q-5.25 0-7.875 4.6562v16.188q2.6562 4.5938 7.9375 4.5938 4.6875 0 6.8437-3.6875 2.1875-3.6875 2.1875-8.7188v-0.6562q0-5.0313-2.1875-8.6875-2.1562-3.6875-6.9062-3.6875z"/><path d="m1867.6 1066.3q-1.9687 0.625-4.4687 0.625-3.2188 0-5.5-1.9688-2.2813-1.9687-2.2813-7.0625v-20.969h-6.1875v-4.4375h6.1875v-8.2188h5.7813v8.2188h6.3125v4.4375h-6.3125v21q0 2.5937 1.125 3.3125 1.125 0.7187 2.5937 0.7187 1.0938 0 2.7188-0.375z"/><path d="m1879.5 1059.4v4.6562q0 2.8438-1.4375 6-1.4375 3.1875-4.0312 5.3125l-3.2813-2.2812q3-4.1875 3.0938-8.5625v-5.125z"/><path d="m1930.2 1066.3-9.875-18.438h-10.688v18.438h-6.0312v-45.5h15.062q7.6562 0 11.781 3.5 4.1563 3.5 4.1563 10.156 0 4.25-2.3125 7.4375-2.2813 3.1563-6.3438 4.7188l10.688 19.312v0.375zm-20.562-40.562v17.219h9.2188q4.8437 0 7.2812-2.4687 2.4688-2.5 2.4688-6.0313 0-3.9375-2.375-6.3125-2.3438-2.4062-7.5625-2.4062z"/><path d="m1968.9 1060.4q-1.6563 2.5-4.6875 4.5313-3.0313 2-8.0313 2-7.0625 0-11.312-4.5938-4.2187-4.5937-4.2187-11.75v-1.3125q0-5.5312 2.0937-9.4062 2.125-3.9063 5.5-5.9375 3.375-2.0625 7.1875-2.0625 7.25 0 10.562 4.75 3.3438 4.7187 3.3438 11.812v2.5937h-22.875q0.125 4.6563 2.75 7.9375 2.6562 3.25 7.2812 3.25 3.0625 0 5.1875-1.25t3.7188-3.3437zm-13.469-23.781q-3.4375 0-5.8125 2.5t-2.9687 7.1875h16.906v-0.4375q-0.2187-3.375-1.9687-6.3125-1.7188-2.9375-6.1563-2.9375z"/><path d="m1997 1066.3q-0.5625-1.2188-0.8125-3.5625-1.625 1.7187-4.0625 2.9687-2.4375 1.2188-5.5625 1.2188-5.1875 0-8.3125-2.9063-3.125-2.9062-3.125-7.125 0-5.4375 4.125-8.25 4.125-2.8437 11.094-2.8437h5.7188v-2.6875q0-3-1.8125-4.7813-1.7813-1.8125-5.3125-1.8125-3.2813 0-5.3125 1.625-2 1.5938-2 3.7188h-5.7813q0-3.625 3.6563-6.8125 3.6562-3.1875 9.7812-3.1875 5.5 0 9.0313 2.8125 3.5312 2.8125 3.5312 8.5v15.188q0 4.6875 1.1875 7.4375v0.5zm-9.5938-4.4375q3.125 0 5.4063-1.5625 2.3125-1.5625 3.25-3.4688v-6.9687h-5.375q-9.75 0.1875-9.75 6.25 0 2.4062 1.625 4.0937 1.625 1.6563 4.8437 1.6563z"/><path d="m2024.4 1062.1q3.0938 0 5.4063-1.8438 2.3437-1.8437 2.5625-4.7187h5.5q-0.2188 4.5312-4.1563 7.9375-3.9375 3.375-9.3125 3.375-7.625 0-11.344-5.0313-3.6875-5.0312-3.6875-11.844v-1.3125q0-6.8125 3.6875-11.844 3.7187-5.0312 11.344-5.0312 5.9375 0 9.5938 3.5312 3.6562 3.5 3.875 8.7188h-5.5q-0.2188-3.125-2.375-5.3125-2.125-2.1875-5.5938-2.1875-3.5625 0-5.5937 1.8125-2 1.8125-2.8438 4.5937-0.8125 2.7813-0.8125 5.7188v1.3125q0 2.9687 0.8125 5.75 0.8125 2.7812 2.8125 4.5937 2.0313 1.7813 5.625 1.7813z"/><path d="m2058.7 1066.3q-1.9688 0.625-4.4688 0.625-3.2187 0-5.5-1.9688-2.2812-1.9687-2.2812-7.0625v-20.969h-6.1875v-4.4375h6.1875v-8.2188h5.7812v8.2188h6.3125v4.4375h-6.3125v21q0 2.5937 1.125 3.3125 1.125 0.7187 2.5938 0.7187 1.0937 0 2.7187-0.375z"/><path d="m2070.6 1059.4v4.6562q0 2.8438-1.4375 6-1.4375 3.1875-4.0313 5.3125l-3.2812-2.2812q3-4.1875 3.0937-8.5625v-5.125z"/><path d="m1600 1148.5-9.875-18.438h-10.688v18.438h-6.0312v-45.5h15.062q7.6562 0 11.781 3.5 4.1563 3.5 4.1563 10.156 0 4.25-2.3125 7.4375-2.2813 3.1563-6.3438 4.7188l10.688 19.312v0.375zm-20.562-40.562v17.219h9.2188q4.8437 0 7.2812-2.4687 2.4688-2.5 2.4688-6.0313 0-3.9375-2.375-6.3125-2.3438-2.4062-7.5625-2.4062z"/><path d="m1638.7 1142.6q-1.6563 2.5-4.6875 4.5313-3.0313 2-8.0313 2-7.0625 0-11.312-4.5938-4.2187-4.5937-4.2187-11.75v-1.3125q0-5.5312 2.0937-9.4062 2.125-3.9063 5.5-5.9375 3.375-2.0625 7.1875-2.0625 7.25 0 10.562 4.75 3.3438 4.7187 3.3438 11.812v2.5937h-22.875q0.125 4.6563 2.75 7.9375 2.6562 3.25 7.2812 3.25 3.0625 0 5.1875-1.25t3.7188-3.3437zm-13.469-23.781q-3.4375 0-5.8125 2.5t-2.9687 7.1875h16.906v-0.4375q-0.2187-3.375-1.9687-6.3125-1.7188-2.9375-6.1563-2.9375z"/><path d="m1652.2 1100.5v48h-5.8125v-48z"/><path d="m1682.4 1148.5q-0.5625-1.2188-0.8125-3.5625-1.625 1.7187-4.0625 2.9687-2.4375 1.2188-5.5625 1.2188-5.1875 0-8.3125-2.9063-3.125-2.9062-3.125-7.125 0-5.4375 4.125-8.25 4.125-2.8437 11.094-2.8437h5.7188v-2.6875q0-3-1.8125-4.7813-1.7813-1.8125-5.3125-1.8125-3.2813 0-5.3125 1.625-2 1.5938-2 3.7188h-5.7813q0-3.625 3.6563-6.8125 3.6562-3.1875 9.7812-3.1875 5.5 0 9.0313 2.8125 3.5312 2.8125 3.5312 8.5v15.188q0 4.6875 1.1875 7.4375v0.5zm-9.5938-4.4375q3.125 0 5.4063-1.5625 2.3125-1.5625 3.25-3.4688v-6.9687h-5.375q-9.75 0.1875-9.75 6.25 0 2.4062 1.625 4.0937 1.625 1.6563 4.8437 1.6563z"/><path d="m1707.4 1153.7q-3 7.9375-9.0625 8.4063l-0.9688 0.031q-1.8437 0-3.25-0.5l-0.031-4.6875 1.5625 0.125q2.9375 0 4.5937-1.2187 1.6563-1.1875 2.7188-4.3125l1.25-3.4375-12.062-33.438h6.3125l8.4687 25.312 7.8438-25.312h6.1875z"/></g></g></svg>
